<?xml version="1.0" encoding="UTF-8"?>
<svg version="1.1" xmlns="http://www.w3.org/2000/svg" width="650" height="626">
<path d="M0 0 C214.5 0 429 0 650 0 C650 206.58 650 413.16 650 626 C435.5 626 221 626 0 626 C0 419.42 0 212.84 0 0 Z " fill="#FDFDFD" transform="translate(0,0)"/>
<path d="M0 0 C0.8505748 -0.0065712 1.7011496 -0.0131424 2.57749939 -0.01991272 C5.39956749 -0.03966501 8.22158234 -0.05131243 11.04370117 -0.0612793 C12.48788705 -0.06739259 12.48788705 -0.06739259 13.9612484 -0.07362938 C19.05684572 -0.09449809 24.15241604 -0.10879649 29.24804688 -0.11816406 C34.51415896 -0.1292318 39.77984888 -0.16363366 45.04581165 -0.20333576 C49.09243054 -0.22946727 53.1389483 -0.2378528 57.18564415 -0.24144554 C59.1269281 -0.24632026 61.06820727 -0.25795937 63.00940895 -0.27648354 C65.72666605 -0.30080195 68.4428239 -0.29992344 71.16015625 -0.29296875 C72.36277603 -0.31218384 72.36277603 -0.31218384 73.58969116 -0.33178711 C77.36430887 -0.29657855 79.53868482 0.02630631 82.75004578 2.08137512 C85.56618984 4.99700017 85.89893929 6.50772184 85.88769531 10.44311523 C85.88761978 11.32387726 85.88754425 12.20463928 85.88746643 13.11209106 C85.88230515 14.06421478 85.87714386 15.0163385 85.87182617 15.99731445 C85.86970375 17.45800858 85.86970375 17.45800858 85.86753845 18.94821167 C85.86192965 22.06617269 85.84937566 25.18406255 85.83666992 28.30200195 C85.83165606 30.412678 85.82709295 32.52335517 85.82299805 34.6340332 C85.81195737 39.81504717 85.79521066 44.99601948 85.77416992 50.17700195 C86.66555664 50.1612915 86.66555664 50.1612915 87.57495117 50.14526367 C90.30797981 50.10329064 93.04094029 50.07754616 95.77416992 50.05200195 C96.70874023 50.03524414 97.64331055 50.01848633 98.60620117 50.0012207 C104.36626955 49.9609405 109.25159812 50.5228354 114.77416992 52.17700195 C114.77416992 52.83700195 114.77416992 53.49700195 114.77416992 54.17700195 C115.49604492 54.25950195 116.21791992 54.34200195 116.96166992 54.42700195 C123.04283063 56.04864481 127.93078993 61.58540196 131.49682617 66.59887695 C135.2675661 73.15094983 135.94026839 78.7809824 135.89916992 86.30200195 C135.90303711 87.01743164 135.9069043 87.73286133 135.91088867 88.4699707 C135.90496646 91.6383518 135.7831361 94.15010341 134.77416992 97.17700195 C134.11416992 97.17700195 133.45416992 97.17700195 132.77416992 97.17700195 C132.40291992 98.78575195 132.40291992 98.78575195 132.02416992 100.42700195 C130.74142204 104.2752456 129.53699017 105.4141817 126.77416992 108.17700195 C127.16841349 111.27924645 128.42564334 113.42510332 130.14916992 115.98950195 C135.64373636 124.68525057 137.43495109 132.57356162 135.19995117 142.8059082 C133.63420207 147.70198078 131.84095592 153.25784352 128.02416992 156.80200195 C127.61166992 157.25575195 127.19916992 157.70950195 126.77416992 158.17700195 C127.22545181 161.2521657 128.366264 163.23803092 130.14916992 165.73950195 C134.70551453 172.84475818 137.06200806 181.75652181 135.77416992 190.17700195 C134.03698232 196.54668983 131.56487483 201.81772949 127.77416992 207.17700195 C126.63328994 209.14804357 126.63328994 209.14804357 126.77416992 211.17700195 C128.08454926 212.86177539 129.42260317 214.52508704 130.77416992 216.17700195 C131.99150077 218.77616782 132.88936894 221.44930189 133.77416992 224.17700195 C134.16604492 225.31137695 134.55791992 226.44575195 134.96166992 227.61450195 C137.2950745 237.84558358 134.93721801 247.50926284 129.35229492 256.4543457 C127.92652729 258.20589358 126.4733886 259.69175896 124.77416992 261.17700195 C124.26241211 261.63333008 123.7506543 262.0896582 123.22338867 262.55981445 C112.03687148 271.47699045 99.32747618 270.66772186 85.77416992 270.17700195 C85.78988037 270.97283691 85.80559082 271.76867187 85.82177734 272.58862305 C85.88467417 276.24300852 85.92333367 279.89727956 85.96166992 283.55200195 C85.999375 285.42952148 85.999375 285.42952148 86.0378418 287.3449707 C86.15962539 302.85208204 81.08153748 315.08795594 70.47729492 326.55200195 C64.58186223 332.17700195 64.58186223 332.17700195 60.77416992 332.17700195 C60.44416992 333.16700195 60.11416992 334.15700195 59.77416992 335.17700195 C57.79416992 335.50700195 55.81416992 335.83700195 53.77416992 336.17700195 C53.77416992 336.83700195 53.77416992 337.49700195 53.77416992 338.17700195 C40.5919012 341.13574764 24.8453675 342.48318733 12.64916992 335.61450195 C6.01891524 331.25502917 -0.8340717 325.87055009 -5.22583008 319.17700195 C-5.22583008 318.51700195 -5.22583008 317.85700195 -5.22583008 317.17700195 C-5.88583008 317.17700195 -6.54583008 317.17700195 -7.22583008 317.17700195 C-8.21109708 314.95035878 -9.18914452 312.72098879 -10.16333008 310.48950195 C-10.44112305 309.86366211 -10.71891602 309.23782227 -11.00512695 308.59301758 C-13.5547488 302.72581549 -14.35260056 297.9397366 -14.32348633 291.5637207 C-14.32026367 290.31655273 -14.31704102 289.06938477 -14.3137207 287.78442383 C-14.3053418 286.49084961 -14.29696289 285.19727539 -14.28833008 283.86450195 C-14.28381836 282.5515918 -14.27930664 281.23868164 -14.2746582 279.88598633 C-14.26288967 276.64963867 -14.24495471 273.4133145 -14.22583008 270.17700195 C-18.84583008 270.17700195 -23.46583008 270.17700195 -28.22583008 270.17700195 C-28.88583008 272.15700195 -29.54583008 274.13700195 -30.22583008 276.17700195 C-31.2121582 278.12060547 -31.2121582 278.12060547 -32.25708008 279.8059082 C-32.65064697 280.44230225 -33.04421387 281.07869629 -33.44970703 281.734375 C-33.87082764 282.39606689 -34.29194824 283.05775879 -34.72583008 283.73950195 C-35.3836145 284.78134644 -35.3836145 284.78134644 -36.0546875 285.84423828 C-46.44090159 302.04436377 -59.07625056 315.57719651 -75.22583008 326.17700195 C-75.99668945 326.68618164 -76.76754883 327.19536133 -77.56176758 327.7199707 C-82.92646033 331.17700195 -82.92646033 331.17700195 -85.22583008 331.17700195 C-85.55583008 332.16700195 -85.88583008 333.15700195 -86.22583008 334.17700195 C-88.84301758 335.2746582 -88.84301758 335.2746582 -92.10083008 336.23950195 C-95.62785498 337.29760942 -98.1446828 338.12290377 -101.22583008 340.17700195 C-104.03293419 340.43706417 -104.03293419 340.43706417 -107.51327515 340.45115662 C-108.83119553 340.46113174 -110.14911591 340.47110687 -111.50697327 340.48138428 C-112.9710387 340.4822801 -114.43510429 340.48294366 -115.89916992 340.48339844 C-117.4382823 340.49101842 -118.97739086 340.49944564 -120.51649475 340.50862122 C-124.700411 340.5305888 -128.88425416 340.53936811 -133.06822157 340.54444766 C-135.68160465 340.54808851 -138.29496851 340.55432714 -140.90834427 340.56144905 C-150.02394707 340.58595122 -159.1394929 340.59899714 -168.25512695 340.60253906 C-176.75478825 340.60617514 -185.25408862 340.63607358 -193.75363958 340.67794365 C-201.04884722 340.71262227 -208.34393512 340.72808708 -215.63922465 340.7287851 C-219.99733921 340.72957874 -224.35508622 340.73835686 -228.71311569 340.76678276 C-232.81233491 340.79292216 -236.91088081 340.7951922 -241.01014519 340.77912712 C-242.51419096 340.77730931 -244.01827508 340.78403342 -245.52223778 340.79994583 C-247.57709665 340.82036054 -249.62958931 340.809887 -251.68441772 340.79173279 C-252.83368429 340.79374412 -253.98295086 340.79575544 -255.16704369 340.79782772 C-259.14730808 339.98997441 -260.6329923 338.21579311 -263.22583008 335.17700195 C-263.55583008 334.84700195 -263.88583008 334.51700195 -264.22583008 334.17700195 C-264.33173335 331.89754096 -264.36552978 329.61473227 -264.3730011 327.33282471 C-264.37851613 326.24652633 -264.37851613 326.24652633 -264.38414258 325.13828254 C-264.39522234 322.69317419 -264.3990305 320.24810827 -264.40283203 317.80297852 C-264.40909349 316.05726993 -264.41574001 314.31156269 -264.42274475 312.56585693 C-264.4401852 307.80953842 -264.45071497 303.05322999 -264.45895028 298.2968874 C-264.4640944 295.3273965 -264.47017042 292.35790877 -264.47646141 289.3884201 C-264.4955227 280.10380314 -264.50975135 270.81919418 -264.51807338 261.5345614 C-264.52784769 250.80569213 -264.55416835 240.07702909 -264.59457427 229.34823251 C-264.62470728 221.0636999 -264.63953961 212.77922648 -264.64285439 204.49464011 C-264.64520829 199.54298759 -264.65421254 194.59155513 -264.67931557 189.63996124 C-264.70255184 184.98110122 -264.7068475 180.32260681 -264.69655418 175.66370392 C-264.69605761 173.95325507 -264.70241374 172.2427885 -264.71611023 170.53239441 C-264.73376169 168.19752703 -264.7267574 165.86398131 -264.71357727 163.52911377 C-264.71596562 162.22238834 -264.71835398 160.91566292 -264.7208147 159.56933975 C-263.99568358 154.59971123 -261.61414532 152.32179304 -257.84301758 149.2121582 C-256.9380957 148.56118164 -256.03317383 147.91020508 -255.10083008 147.23950195 C-249.75872378 143.32587097 -244.50692401 139.31644278 -239.28833008 135.23950195 C-237.73377398 134.02709386 -236.17908795 132.81485236 -234.62426758 131.6027832 C-233.87628906 131.01964355 -233.12831055 130.43650391 -232.35766602 129.83569336 C-227.33214561 125.92554842 -222.27713697 122.05373558 -217.22583008 118.17700195 C-215.0587216 116.51090942 -212.89228055 114.84394996 -210.72583008 113.17700195 C-209.64250884 112.3436529 -208.55917552 111.51031954 -207.47583008 110.67700195 C-206.93958008 110.26450195 -206.40333008 109.85200195 -205.85083008 109.42700195 C-195.55916341 101.51033529 -185.26749674 93.59366862 -174.97583008 85.67700195 C-174.43933838 85.26426025 -173.90284668 84.85151855 -173.35009766 84.42626953 C-172.2694236 83.59509425 -171.18853248 82.76420113 -170.10742188 81.93359375 C-167.35653039 79.81953261 -164.60987548 77.70032257 -161.87036133 75.5715332 C-158.6700711 73.08719575 -155.45252335 70.6269752 -152.22583008 68.17700195 C-151.37375977 67.52602539 -150.52168945 66.87504883 -149.64379883 66.2043457 C-143.26147722 61.51297845 -136.50656412 58.25839649 -129.22583008 55.17700195 C-128.14495117 54.6974707 -128.14495117 54.6974707 -127.04223633 54.20825195 C-114.47691062 48.9835843 -100.59326291 49.91209628 -87.27270508 49.98168945 C-85.15993382 49.985426 -83.04716082 49.98826993 -80.93438721 49.99026489 C-75.41069641 49.99785086 -69.88711309 50.01745536 -64.36346436 50.03967285 C-58.7121323 50.06024055 -53.06078264 50.06928984 -47.40942383 50.0793457 C-36.34817905 50.10070659 -25.28701355 50.13478077 -14.22583008 50.17700195 C-14.24677734 48.87029541 -14.26772461 47.56358887 -14.28930664 46.21728516 C-14.36178561 41.36257921 -14.40765883 36.50792097 -14.44555664 31.65283203 C-14.46565405 29.55281528 -14.49293674 27.45285437 -14.52758789 25.35302734 C-14.57618778 22.33197237 -14.59881769 19.31165819 -14.61645508 16.2902832 C-14.63710022 15.35364334 -14.65774536 14.41700348 -14.67901611 13.45198059 C-14.68048822 9.16153903 -14.62794035 6.82683903 -12.32641602 3.10742188 C-8.47765152 -0.4295587 -4.98925259 0.01660721 0 0 Z " fill="#040303" transform="translate(296.225830078125,271.822998046875)"/>
<path d="M0 0 C2.41727513 -0.00570845 4.83454757 -0.01267454 7.2518158 -0.02079773 C13.1113329 -0.03683048 18.97075082 -0.03884284 24.83027815 -0.03358483 C29.59206905 -0.02953068 34.35382834 -0.03100136 39.11561775 -0.03633308 C39.79528712 -0.03708151 40.4749565 -0.03782993 41.17522191 -0.03860103 C42.55619685 -0.04013259 43.93717179 -0.04167094 45.31814671 -0.043216 C58.23644965 -0.05691034 71.15469183 -0.05152283 84.07299335 -0.04003078 C95.88972307 -0.0300805 107.70629661 -0.0430754 119.52300226 -0.06696498 C131.6721859 -0.0913411 143.82129674 -0.10096883 155.97050434 -0.09431225 C162.78536439 -0.09081943 169.60010407 -0.09305734 176.4149456 -0.11056328 C182.81478645 -0.12680063 189.21440144 -0.1221274 195.61423683 -0.10325813 C197.96486731 -0.09956087 200.31551982 -0.10271359 202.66613007 -0.11314392 C205.86956139 -0.12627604 209.07198792 -0.11487516 212.27537537 -0.09715271 C213.67701082 -0.11156022 213.67701082 -0.11156022 215.10696214 -0.12625879 C219.31698737 -0.07818451 221.54556096 0.03608234 225.18873692 2.31037807 C228.72912414 6.11889804 228.29081645 9.54125047 228.30236816 14.50067139 C228.30816155 15.34752573 228.31395494 16.19438008 228.31992388 17.06689668 C228.33804549 19.92113842 228.34887313 22.77536029 228.35961914 25.62963867 C228.37079006 27.66943545 228.38230325 29.70923038 228.39413452 31.74902344 C228.4307406 38.46213209 228.4559154 45.17525976 228.47875977 51.88842773 C228.48270563 53.02955678 228.4866515 54.17068583 228.49071693 55.34639454 C228.52713431 66.10322697 228.55858733 76.86006587 228.57982635 87.61693954 C228.60741805 101.38905126 228.65821319 115.16064883 228.74030066 128.93254638 C228.79603042 138.60902848 228.82505343 148.2853708 228.83429956 157.96200776 C228.84056644 163.74494794 228.85877202 169.52728566 228.90568542 175.31005096 C228.9492744 180.75046125 228.95986395 186.18993803 228.94505692 191.63049316 C228.94538624 193.6275855 228.95771524 195.62471722 228.98290634 197.6216507 C229.01549321 200.34873418 229.00489561 203.072382 228.98352051 205.79949951 C229.00322828 206.58997547 229.02293605 207.38045143 229.04324102 208.1948812 C228.97668438 211.55727325 228.81083938 213.59697425 226.60738277 216.22835112 C223.44430825 219.00795215 220.55496816 221.08805411 216.39282227 222.04858398 C215.55364258 222.25032227 214.71446289 222.45206055 213.84985352 222.65991211 C212.99520508 222.84360352 212.14055664 223.02729492 211.26000977 223.21655273 C209.98963867 223.52109375 209.98963867 223.52109375 208.69360352 223.83178711 C192.31451193 227.63183669 174.24814835 228.44479395 158.13500977 223.40405273 C156.83017204 223.08902182 155.5226229 222.78509498 154.21313477 222.48999023 C146.32691784 220.70109809 139.16908908 218.5298108 132.13500977 214.40405273 C132.13500977 213.74405273 132.13500977 213.08405273 132.13500977 212.40405273 C131.25973633 212.15268555 130.38446289 211.90131836 129.48266602 211.64233398 C125.99995672 210.35409729 123.54340236 208.80176159 120.57250977 206.59155273 C119.62118164 205.88514648 118.66985352 205.17874023 117.68969727 204.45092773 C115.66497259 202.82867127 113.9292385 201.25613482 112.19750977 199.34155273 C111.51688477 198.70217773 110.83625977 198.06280273 110.13500977 197.40405273 C107.18625387 197.54713583 106.12084909 198.41727612 103.95141602 200.44311523 C103.20762695 201.29647461 102.46383789 202.14983398 101.69750977 203.02905273 C100.90989258 203.93268555 100.12227539 204.83631836 99.31079102 205.76733398 C97.57256889 207.87379707 95.94249806 209.97673623 94.38500977 212.21655273 C92.13500977 215.40405273 92.13500977 215.40405273 89.85766602 217.67358398 C87.35957802 220.1788401 85.09877627 222.7554243 82.83520508 225.46704102 C74.53897197 235.40484639 66.60859597 244.647349 53.13500977 246.40405273 C44.2883073 246.9549851 36.53095883 246.28266384 28.13500977 243.40405273 C28.13500977 242.74405273 28.13500977 242.08405273 28.13500977 241.40405273 C27.28938477 241.23905273 26.44375977 241.07405273 25.57250977 240.90405273 C16.81106664 237.08087755 12.70912552 227.79962664 9.13500977 219.40405273 C8.18006761 216.42056481 8.02653537 213.78031177 8.07250977 210.65405273 C8.0815332 209.85483398 8.09055664 209.05561523 8.09985352 208.23217773 C8.11145508 207.62889648 8.12305664 207.02561523 8.13500977 206.40405273 C7.45696289 206.43885742 6.77891602 206.47366211 6.08032227 206.50952148 C-2.57870218 206.76137677 -10.11138827 205.97028258 -17.05249023 200.40405273 C-24.54411524 193.24606286 -29.96923284 183.57220602 -31.86499023 173.40405273 C-39.23070094 174.5937036 -46.55980031 175.88483182 -53.86499023 177.40405273 C-53.47827148 178.10530273 -53.09155273 178.80655273 -52.69311523 179.52905273 C-51.07252131 182.48142186 -49.46615808 185.44110733 -47.86499023 188.40405273 C-47.46280273 189.14010742 -47.06061523 189.87616211 -46.64624023 190.63452148 C-42.11964374 199.22476711 -41.57722144 206.81175957 -41.86499023 216.40405273 C-42.52499023 216.40405273 -43.18499023 216.40405273 -43.86499023 216.40405273 C-43.94749023 217.43530273 -44.02999023 218.46655273 -44.11499023 219.52905273 C-45.40102864 226.17358449 -49.2147634 229.7538259 -53.86499023 234.40405273 C-54.19499023 235.39405273 -54.52499023 236.38405273 -54.86499023 237.40405273 C-62.51831366 241.37789374 -72.8608939 241.8461199 -81.03686523 239.48999023 C-87.87989254 236.86241897 -92.75022885 233.52344146 -96.86499023 227.40405273 C-96.86499023 226.74405273 -96.86499023 226.08405273 -96.86499023 225.40405273 C-97.85499023 225.07405273 -98.84499023 224.74405273 -99.86499023 224.40405273 C-103.22358634 215.74241014 -103.67257789 202.50969918 -100.16967773 193.80249023 C-96.30370937 186.69559031 -91.6242142 179.94326934 -86.65405273 173.56811523 C-82.6917093 168.44132801 -81.43767427 165.6589997 -81.93139648 159.22045898 C-81.80091089 153.68633477 -79.49303713 148.52505931 -77.5925293 143.37817383 C-76.85157705 141.3676571 -76.13280916 139.35037303 -75.41967773 137.32983398 C-74.24884331 134.01610506 -73.06155015 130.7085948 -71.86499023 127.40405273 C-73.10249023 127.48655273 -74.33999023 127.56905273 -75.61499023 127.65405273 C-84.41987206 127.61245487 -92.68261852 124.68565307 -99.04077148 118.54077148 C-107.86499023 108.20490927 -107.86499023 108.20490927 -107.86499023 102.40405273 C-108.52499023 102.40405273 -109.18499023 102.40405273 -109.86499023 102.40405273 C-111.07244858 98.78167769 -111.08745052 95.42699323 -111.11499023 91.65405273 C-111.13561523 90.96311523 -111.15624023 90.27217773 -111.17749023 89.56030273 C-111.21612254 84.42220618 -110.11797225 81.01703341 -107.86499023 76.40405273 C-107.45249023 75.26967773 -107.03999023 74.13530273 -106.61499023 72.96655273 C-102.16787962 63.91350612 -93.61685868 56.97825174 -86.56030273 49.89624023 C-85.75933985 49.09103628 -85.75933985 49.09103628 -84.94219589 48.26956558 C-82.12047958 45.43296446 -79.29598278 42.59916865 -76.46899414 39.76782227 C-73.57204916 36.8653841 -70.68451298 33.95377083 -67.79905891 31.03991508 C-65.55631304 28.77843785 -63.3067822 26.523801 -61.05541611 24.27090836 C-59.9885397 23.20103256 -58.92413126 22.12868914 -57.86240005 21.05370712 C-45.7650527 8.81611166 -45.7650527 8.81611166 -38.86499023 5.40405273 C-37.87499023 5.40405273 -36.88499023 5.40405273 -35.86499023 5.40405273 C-35.86499023 4.74405273 -35.86499023 4.08405273 -35.86499023 3.40405273 C-24.24406137 -0.77353652 -12.16720605 -0.02595474 0 0 Z " fill="#040303" transform="translate(403.864990234375,11.595947265625)"/>
<path d="M0 0 C0.90810425 -0.00014603 1.8162085 -0.00029205 2.75183105 -0.0004425 C5.73309779 0.00025038 8.71430091 0.0080134 11.69555664 0.01586914 C13.77063462 0.01773554 15.84571305 0.0191584 17.92079163 0.02015686 C23.36725086 0.02396456 28.81368319 0.03377987 34.26013184 0.04486084 C39.82388953 0.05511259 45.38765159 0.05966253 50.95141602 0.06469727 C61.85702676 0.07540376 72.76261758 0.09245911 83.66821289 0.11352539 C83.66821289 4.40352539 83.66821289 8.69352539 83.66821289 13.11352539 C81.72946289 13.56727539 79.79071289 14.02102539 77.79321289 14.48852539 C67.37861516 17.43844698 58.50326145 23.10554597 49.22924805 28.54370117 C48.43180176 29.00115723 47.63435547 29.45861328 46.81274414 29.92993164 C46.09062744 30.34831299 45.36851074 30.76669434 44.62451172 31.19775391 C42.66821289 32.11352539 42.66821289 32.11352539 39.66821289 32.11352539 C39.66821289 32.77352539 39.66821289 33.43352539 39.66821289 34.11352539 C38.72204102 34.57500977 37.77586914 35.03649414 36.80102539 35.51196289 C29.18844089 39.25590482 21.69174712 43.1486117 14.29321289 47.30102539 C-3.20041391 57.11352539 -3.20041391 57.11352539 -6.33178711 57.11352539 C-6.66178711 58.10352539 -6.99178711 59.09352539 -7.33178711 60.11352539 C-9.37084961 61.14086914 -9.37084961 61.14086914 -11.95678711 62.05102539 C-15.26383306 63.27813843 -18.30203822 64.55462468 -21.33178711 66.36352539 C-24.33178711 68.11352539 -24.33178711 68.11352539 -26.33178711 68.11352539 C-26.00178711 70.09352539 -25.67178711 72.07352539 -25.33178711 74.11352539 C-24.67178711 74.11352539 -24.01178711 74.11352539 -23.33178711 74.11352539 C-22.34178711 77.08352539 -21.35178711 80.05352539 -20.33178711 83.11352539 C-19.67178711 83.11352539 -19.01178711 83.11352539 -18.33178711 83.11352539 C-17.34178711 84.59852539 -17.34178711 84.59852539 -16.33178711 86.11352539 C-15.38303711 85.61852539 -14.43428711 85.12352539 -13.45678711 84.61352539 C-10.33178711 83.11352539 -10.33178711 83.11352539 -8.33178711 83.11352539 C-8.33178711 82.45352539 -8.33178711 81.79352539 -8.33178711 81.11352539 C-7.50678711 80.71262695 -6.68178711 80.31172852 -5.83178711 79.89868164 C1.70769695 76.18784183 9.07539056 72.28080015 16.33618164 68.04736328 C21.25073346 65.21715232 21.25073346 65.21715232 23.79467773 64.58569336 C25.75477486 64.26202679 25.75477486 64.26202679 27.04321289 62.73852539 C29.28674302 60.49499526 31.81399964 59.50774937 34.66821289 58.11352539 C37.30268249 56.75645984 39.92313992 55.37314878 42.54321289 53.98852539 C43.27628662 53.60180664 44.00936035 53.21508789 44.76464844 52.81665039 C50.74186182 49.64551141 56.64079796 46.3465549 62.48999023 42.94506836 C65.52485092 41.20401257 68.23616546 39.81964041 71.66821289 39.11352539 C72.10133789 38.65977539 72.53446289 38.20602539 72.98071289 37.73852539 C76.59629612 34.25685265 80.76726302 33.11352539 85.66821289 33.11352539 C85.66821289 32.45352539 85.66821289 31.79352539 85.66821289 31.11352539 C88.63821289 31.11352539 91.60821289 31.11352539 94.66821289 31.11352539 C94.66821289 31.77352539 94.66821289 32.43352539 94.66821289 33.11352539 C95.39008789 33.17540039 96.11196289 33.23727539 96.85571289 33.30102539 C101.76472514 34.71918449 104.95435009 38.91587924 107.66821289 43.11352539 C108.57054058 47.96658513 108.25742746 52.6989203 105.98071289 57.11352539 C103.62044353 60.17549645 102.36319202 61.18978061 98.66821289 62.11352539 C98.66821289 62.77352539 98.66821289 63.43352539 98.66821289 64.11352539 C98.15774414 64.39325195 97.64727539 64.67297852 97.12133789 64.96118164 C91.40220629 68.11481626 85.77500454 71.40204993 80.17211914 74.75805664 C77.66821289 76.11352539 77.66821289 76.11352539 75.66821289 76.11352539 C75.33821289 77.10352539 75.00821289 78.09352539 74.66821289 79.11352539 C72.87524414 80.21899414 72.87524414 80.21899414 70.48071289 81.30102539 C65.24880354 83.76933574 60.2896017 86.57837057 55.31591797 89.52246094 C50.87844792 92.11352539 50.87844792 92.11352539 48.66821289 92.11352539 C48.66821289 92.77352539 48.66821289 93.43352539 48.66821289 94.11352539 C48.15774414 94.39325195 47.64727539 94.67297852 47.12133789 94.96118164 C41.40220629 98.11481626 35.77500454 101.40204993 30.17211914 104.75805664 C27.66821289 106.11352539 27.66821289 106.11352539 25.66821289 106.11352539 C25.33821289 107.10352539 25.00821289 108.09352539 24.66821289 109.11352539 C22.89086914 110.17602539 22.89086914 110.17602539 20.73071289 111.11352539 C17.46204991 112.53726244 16.75196317 112.98789997 14.66821289 116.11352539 C14.16792068 118.50951317 14.16792068 118.50951317 13.92211914 121.19165039 C13.80674805 122.1880957 13.69137695 123.18454102 13.57250977 124.21118164 C13.34636492 126.29688322 13.12237283 128.38281945 12.90063477 130.46899414 C12.22317502 136.2854165 11.25992042 140.86564 8.66821289 146.11352539 C8.2312207 147.19891602 7.79422852 148.28430664 7.34399414 149.40258789 C2.92448142 160.21709754 -2.42774163 170.39880858 -10.33178711 179.11352539 C-10.87577148 179.75805664 -11.41975586 180.40258789 -11.98022461 181.06665039 C-15.48644778 185.20062531 -18.9762073 188.87216368 -23.33178711 192.11352539 C-23.99178711 192.11352539 -24.65178711 192.11352539 -25.33178711 192.11352539 C-25.33178711 192.77352539 -25.33178711 193.43352539 -25.33178711 194.11352539 C-27.27319336 195.44555664 -27.27319336 195.44555664 -29.89428711 196.92602539 C-33.01217754 198.72077745 -35.94460579 200.51322767 -38.76928711 202.73852539 C-44.4239591 206.90229811 -51.49499483 208.87944736 -58.33178711 210.11352539 C-58.04303711 211.3059082 -57.75428711 212.49829102 -57.45678711 213.72680664 C-57.08161013 215.29317051 -56.70661985 216.85957911 -56.33178711 218.42602539 C-56.14100586 219.21170898 -55.95022461 219.99739258 -55.75366211 220.80688477 C-55.57319336 221.56420898 -55.39272461 222.3215332 -55.20678711 223.10180664 C-55.03920898 223.79830322 -54.87163086 224.4947998 -54.69897461 225.21240234 C-54.33178711 227.11352539 -54.33178711 227.11352539 -54.33178711 230.11352539 C-52.35178711 229.78352539 -50.37178711 229.45352539 -48.33178711 229.11352539 C-48.33178711 228.45352539 -48.33178711 227.79352539 -48.33178711 227.11352539 C-46.89624686 226.60792631 -45.45826691 226.10925049 -44.01928711 225.61352539 C-42.81852539 225.19586914 -42.81852539 225.19586914 -41.59350586 224.76977539 C-39.33178711 224.11352539 -39.33178711 224.11352539 -36.33178711 224.11352539 C-36.33178711 223.45352539 -36.33178711 222.79352539 -36.33178711 222.11352539 C-35.29280273 221.62883789 -34.25381836 221.14415039 -33.18334961 220.64477539 C-24.71392345 216.60943866 -17.36471631 212.41435787 -10.33178711 206.11352539 C-9.10588867 205.08291992 -9.10588867 205.08291992 -7.85522461 204.03149414 C0.10703295 197.1908549 7.22888439 189.37590253 12.66821289 180.36352539 C13.32821289 179.29102539 13.98821289 178.21852539 14.66821289 177.11352539 C15.32821289 177.11352539 15.98821289 177.11352539 16.66821289 177.11352539 C17.06008789 175.85540039 17.45196289 174.59727539 17.85571289 173.30102539 C19.70705383 167.71139987 22.15366815 162.43084332 24.66821289 157.11352539 C25.32821289 157.11352539 25.98821289 157.11352539 26.66821289 157.11352539 C27.65821289 151.83352539 28.64821289 146.55352539 29.66821289 141.11352539 C30.32821289 141.11352539 30.98821289 141.11352539 31.66821289 141.11352539 C31.63598633 140.10032227 31.60375977 139.08711914 31.57055664 138.04321289 C31.53773864 127.50863339 31.53773864 127.50863339 34.38696289 123.99243164 C36.743426 122.46156036 39.11403946 121.2825806 41.66821289 120.11352539 C43.28145759 119.1282375 44.8855948 118.12789661 46.48071289 117.11352539 C51.21794655 114.28455043 56.11651256 111.86745919 61.10180664 109.50805664 C63.47987477 108.21586437 64.85784829 107.07261682 66.66821289 105.11352539 C68.39477539 103.72680664 68.39477539 103.72680664 70.29321289 102.42602539 C71.20973633 101.77053711 71.20973633 101.77053711 72.14477539 101.10180664 C74.66821289 100.11352539 74.66821289 100.11352539 83.66821289 100.11352539 C83.66821289 110.01352539 83.66821289 119.91352539 83.66821289 130.11352539 C77.06821289 130.11352539 70.46821289 130.11352539 63.66821289 130.11352539 C63.66821289 136.71352539 63.66821289 143.31352539 63.66821289 150.11352539 C70.26821289 150.11352539 76.86821289 150.11352539 83.66821289 150.11352539 C83.66821289 160.01352539 83.66821289 169.91352539 83.66821289 180.11352539 C71.98071289 180.30102539 71.98071289 180.30102539 68.32177734 180.32128906 C61.99010932 180.47047206 61.99010932 180.47047206 56.51586914 183.41040039 C54.96123018 185.68484047 53.75192934 187.61121179 52.79321289 190.17602539 C48.82140641 199.76259446 43.19114706 208.10489038 36.66821289 216.11352539 C36.06364258 216.92563477 35.45907227 217.73774414 34.83618164 218.57446289 C29.8581824 225.16448226 24.25510272 230.15944205 17.66821289 235.11352539 C16.87672852 235.71938477 16.08524414 236.32524414 15.26977539 236.94946289 C13.7148913 238.09108875 12.12785453 239.19028261 10.51100159 240.24230957 C7.64796432 242.0766775 7.64796432 242.0766775 4.99473572 244.17175293 C-7.69918829 252.63163341 -22.27080989 251.14945516 -36.92084002 250.9246769 C-40.77638049 250.87415788 -44.63198783 250.8699276 -48.48780823 250.86047363 C-55.7657588 250.83575571 -63.04273087 250.77031085 -70.32025343 250.68967772 C-78.61534671 250.59979461 -86.91049043 250.55615703 -95.20595062 250.51611423 C-112.24845907 250.43282771 -129.29001915 250.29240705 -146.33178711 250.11352539 C-146.44856405 229.99045515 -146.53674763 209.86745363 -146.59084797 189.74411488 C-146.61663487 180.40058379 -146.65179462 171.05726318 -146.70898438 161.71386719 C-146.75880454 153.57060201 -146.79107459 145.42748926 -146.80222958 137.28407592 C-146.80875074 132.9717066 -146.82408703 128.65977334 -146.86043739 124.34754372 C-146.89437521 120.28862923 -146.90484473 116.23033043 -146.89732552 112.17128754 C-146.89870108 110.6817382 -146.9086474 109.19216827 -146.92781448 107.70274162 C-146.95271007 105.66837845 -146.94372557 103.63368493 -146.93305969 101.59919739 C-146.93766866 100.46078305 -146.94227762 99.32236872 -146.94702625 98.14945698 C-145.85828057 92.77698117 -141.35829231 89.95541613 -137.14428711 86.80102539 C-136.47010742 86.28926758 -135.79592773 85.77750977 -135.10131836 85.25024414 C-133.33178711 84.11352539 -133.33178711 84.11352539 -131.33178711 84.11352539 C-131.33178711 83.45352539 -131.33178711 82.79352539 -131.33178711 82.11352539 C-129.94005027 81.14674637 -128.54099632 80.18903946 -127.10961914 79.28198242 C-123.36487935 76.82080079 -119.9441622 73.89777641 -116.45483398 71.09204102 C-113.1893526 68.49181651 -109.91960157 66.25875241 -106.33178711 64.11352539 C-105.31648016 63.12907031 -104.31833326 62.12680062 -103.33178711 61.11352539 C-101.22095623 59.40380927 -99.10031807 57.71863762 -96.95678711 56.05102539 C-96.3404541 55.56931885 -95.72412109 55.0876123 -95.08911133 54.59130859 C-89.83058033 50.48740018 -84.55606931 46.40398836 -79.25756836 42.35180664 C-77.43770184 40.95957231 -75.62183475 39.56207402 -73.81225586 38.15649414 C-73.09682617 37.60606445 -72.38139648 37.05563477 -71.64428711 36.48852539 C-71.04229492 36.02188477 -70.44030273 35.55524414 -69.82006836 35.07446289 C-68.33178711 34.11352539 -68.33178711 34.11352539 -66.33178711 34.11352539 C-66.33178711 33.45352539 -66.33178711 32.79352539 -66.33178711 32.11352539 C-64.997432 31.20054558 -63.65534664 30.297919 -62.28881836 29.43383789 C-59.96335009 27.8649591 -57.82049243 26.13364455 -55.64428711 24.36352539 C-51.14982228 20.72869465 -46.55046046 17.28453945 -41.84350586 13.92993164 C-40.38024059 12.87173825 -38.93426173 11.78701761 -37.53881836 10.64086914 C-31.80553156 6.01177091 -23.69610964 3.11352539 -16.33178711 3.11352539 C-16.33178711 2.45352539 -16.33178711 1.79352539 -16.33178711 1.11352539 C-10.84173987 0.18576074 -5.56163021 -0.02367879 0 0 Z " fill="#FABD90" transform="translate(198.331787109375,341.886474609375)"/>
<path d="M0 0 C36.63 0 73.26 0 111 0 C111 37.29 111 74.58 111 113 C104.8211115 114.2357777 98.82441995 114.18600889 92.55517578 114.18530273 C90.40246293 114.18747232 88.25027748 114.2056055 86.09765625 114.22460938 C71.67766492 114.28653623 60.01517233 111.71766742 47.1875 105.25 C46.4960791 104.90219482 45.8046582 104.55438965 45.09228516 104.19604492 C32.20539788 97.61203881 21.83707051 89.77487932 12.48828125 78.7109375 C10.43491677 76.35037676 8.24367669 74.17957164 6 72 C5.67 71.67 5.34 71.34 5 71 C3.53777325 70.90523897 2.07098979 70.87978827 0.60569763 70.88215637 C-0.34332932 70.88103851 -1.29235626 70.87992065 -2.2701416 70.87876892 C-3.84487244 70.88427513 -3.84487244 70.88427513 -5.45141602 70.88989258 C-7.7306773 70.88934964 -10.00993857 70.88876261 -12.28919983 70.88813782 C-13.50503313 70.88956598 -14.72086643 70.89099415 -15.97354317 70.89246559 C-22.38930632 70.89597128 -28.80498025 70.87019309 -35.22070312 70.84960938 C-43.39565419 70.82467161 -51.57037886 70.80892595 -59.74536133 70.82495117 C-66.34083204 70.83777456 -72.93576144 70.81920468 -79.5311718 70.78250694 C-82.04489723 70.77388995 -84.55868321 70.7759741 -87.0723896 70.789011 C-90.59656897 70.8059156 -94.11875896 70.78569011 -97.64282227 70.75708008 C-99.19629868 70.77776802 -99.19629868 70.77776802 -100.78115845 70.7988739 C-106.97146627 70.70163905 -110.63238262 69.61338382 -115.45396328 65.6765089 C-119.19205006 61.6229598 -119.43769817 57.78967216 -119.3125 52.46875 C-118.70095363 47.63753367 -116.14304618 45.06016537 -112.69735718 41.86431885 C-107.60620103 38.60038573 -101.27935179 39.48098048 -95.46728516 39.54589844 C-94.08710768 39.54702767 -92.7069278 39.54639157 -91.32675171 39.54412842 C-87.59147689 39.54298329 -83.8567185 39.56645932 -80.12156343 39.59442425 C-76.21383074 39.61947184 -72.3060855 39.62178254 -68.39828491 39.62652588 C-61.00351689 39.63894583 -53.60898612 39.67175402 -46.21432245 39.71192384 C-37.79357901 39.75667219 -29.3728241 39.77863627 -20.95199132 39.79870558 C-3.6345199 39.84048765 13.68270587 39.91162857 31 40 C31 33.4 31 26.8 31 20 C20.77 20 10.54 20 0 20 C0 13.4 0 6.8 0 0 Z " fill="#FBBD91" transform="translate(501,32)"/>
<path d="M0 0 C1.35274977 -0.0199923 2.70548274 -0.04115143 4.05819702 -0.06341553 C6.89127721 -0.10073213 9.72285598 -0.10981265 12.55615234 -0.1015625 C15.44303191 -0.0965297 18.32292449 -0.13794721 21.20849609 -0.22460938 C46.36576353 -0.97147064 46.36576353 -0.97147064 52.7355957 3.98022461 C55.83286538 7.03235415 57.9723646 10.47051324 60.2734375 14.140625 C63.12308558 16.71156125 66.15960598 18.90438692 69.2734375 21.140625 C70.4490625 22.1615625 70.4490625 22.1615625 71.6484375 23.203125 C78.23954973 28.06799355 85.90797451 31.58392515 93.2734375 35.140625 C93.91966064 35.46369629 94.56588379 35.78676758 95.23168945 36.11962891 C101.14389874 38.93812 106.90079152 40.29794886 113.3359375 41.390625 C114.29693359 41.56335938 115.25792969 41.73609375 116.24804688 41.9140625 C118.58823028 42.33319983 120.92971745 42.74183034 123.2734375 43.140625 C123.2734375 43.800625 123.2734375 44.460625 123.2734375 45.140625 C136.1434375 44.810625 149.0134375 44.480625 162.2734375 44.140625 C162.2734375 60.310625 162.2734375 76.480625 162.2734375 93.140625 C139.42066514 99.99645671 120.38751741 96.87902364 98.2734375 89.140625 C98.2734375 88.480625 98.2734375 87.820625 98.2734375 87.140625 C96.695625 86.769375 96.695625 86.769375 95.0859375 86.390625 C91.38827869 85.31830395 89.16021846 83.7457688 86.2734375 81.140625 C84.89862043 79.95291321 83.52360645 78.76542934 82.1484375 77.578125 C77.01797089 73.0964528 77.01797089 73.0964528 75.2734375 71.140625 C75.2734375 70.480625 75.2734375 69.820625 75.2734375 69.140625 C74.2834375 68.810625 73.2934375 68.480625 72.2734375 68.140625 C70.58632327 66.4946599 68.9188753 64.82825351 67.2734375 63.140625 C64.12432271 61.56606761 61.75334934 61.79263382 58.2734375 62.140625 C53.54827779 65.55501645 50.18663685 69.49974826 46.7109375 74.140625 C43.4539461 78.45256836 40.13766576 82.34250328 36.2734375 86.140625 C34.35611912 88.2715225 32.50224887 90.45443991 30.6484375 92.640625 C30.1342627 93.24213379 29.62008789 93.84364258 29.09033203 94.46337891 C26.40915069 97.6049403 23.75070821 100.7636903 21.1171875 103.9453125 C20.61783691 104.54537109 20.11848633 105.14542969 19.60400391 105.76367188 C18.64799303 106.9143485 17.69696924 108.06919042 16.75146484 109.22851562 C15.63549727 110.56985912 14.45959711 111.86093309 13.2734375 113.140625 C12.6134375 113.140625 11.9534375 113.140625 11.2734375 113.140625 C10.7784375 114.625625 10.7784375 114.625625 10.2734375 116.140625 C4.50258038 118.4276928 -3.25974468 117.82585217 -9.1015625 116.203125 C-13.80784602 112.5053308 -17.19647962 108.29526459 -18.20703125 102.28125 C-18.44902913 93.75370558 -15.18311069 89.44344785 -9.7265625 83.140625 C-8.73424826 81.98187936 -7.74206431 80.82302213 -6.75 79.6640625 C-6.2456543 79.0772168 -5.74130859 78.49037109 -5.22167969 77.88574219 C-3.36366407 75.71704597 -1.52382219 73.53344553 0.31518555 71.34863281 C4.82417607 65.99498064 9.37869866 60.68168925 13.9609375 55.390625 C14.5089502 54.75753418 15.05696289 54.12444336 15.62158203 53.47216797 C19.31462536 49.21697005 23.06228627 45.01657885 26.8828125 40.875 C28.48596791 39.08092571 28.48596791 39.08092571 29.2734375 36.140625 C28.70625 35.89699219 28.1390625 35.65335938 27.5546875 35.40234375 C24.005625 33.43942048 21.37725379 30.54350017 18.4921875 27.72265625 C16.45537671 25.89934943 16.45537671 25.89934943 14.29858398 26.35522461 C10.80697465 27.70935448 8.99179433 30.9607948 6.8359375 33.890625 C3.54039727 38.29686741 0.21542995 42.27870427 -3.7265625 46.140625 C-5.62324366 48.25053836 -7.4553083 50.41348846 -9.2890625 52.578125 C-9.80355957 53.17923096 -10.31805664 53.78033691 -10.84814453 54.3996582 C-13.58252895 57.59751871 -16.28932439 60.81521915 -18.96484375 64.0625 C-19.49070068 64.69357666 -20.01655762 65.32465332 -20.55834961 65.97485352 C-21.56120945 67.17920553 -22.55602084 68.39032164 -23.54125977 69.60913086 C-27.44312977 74.27104339 -30.89234474 76.79357793 -36.98046875 77.5390625 C-38.07230469 77.53132813 -39.16414063 77.52359375 -40.2890625 77.515625 C-41.93068359 77.52722656 -41.93068359 77.52722656 -43.60546875 77.5390625 C-47.07032668 77.09674021 -48.95271622 76.23343734 -51.7265625 74.140625 C-53.0390625 71.453125 -53.0390625 71.453125 -53.7265625 69.140625 C-54.3865625 69.140625 -55.0465625 69.140625 -55.7265625 69.140625 C-58.04167243 64.65509951 -58.48205932 60.08791061 -57.7265625 55.140625 C-55.66151049 50.05100187 -52.58412493 46.36774424 -48.9765625 42.328125 C-44.7878232 37.55997084 -40.77974885 32.7457307 -37.03125 27.6171875 C-36.60070312 27.12992188 -36.17015625 26.64265625 -35.7265625 26.140625 C-35.0665625 26.140625 -34.4065625 26.140625 -33.7265625 26.140625 C-33.51515625 25.62113281 -33.30375 25.10164063 -33.0859375 24.56640625 C-31.14688126 21.10619383 -28.58474481 18.30208898 -25.9765625 15.328125 C-25.46351563 14.73708984 -24.95046875 14.14605469 -24.421875 13.53710938 C-23.44237168 12.40871171 -22.46116268 11.28179024 -21.47753906 10.15698242 C-19.73366818 8.26580104 -19.73366818 8.26580104 -18.67678833 6.396698 C-13.97593173 -0.57147999 -7.8438635 0.02834444 0 0 Z " fill="#F9B381" transform="translate(449.7265625,120.859375)"/>
<path d="M0 0 C19.8 0 39.6 0 60 0 C60.04016367 31.28749768 60.04016367 31.28749768 60.05025387 46.72644138 C60.05579823 55.08089833 60.06284049 63.43534531 60.07543945 71.78979492 C60.08540877 78.40366508 60.09185879 85.01752771 60.09408849 91.63140517 C60.09539177 95.1331674 60.09845348 98.63490811 60.10573006 102.13666344 C60.11378854 106.04643531 60.11398968 109.95618618 60.11352539 113.8659668 C60.11712067 115.02618347 60.12071594 116.18640015 60.12442017 117.3817749 C60.1230455 118.44883163 60.12167084 119.51588837 60.12025452 120.61528015 C60.12117631 121.53983851 60.1220981 122.46439688 60.12304783 123.41697216 C59.99829796 126.03572941 59.58118008 128.4469085 59 131 C58.34 131 57.68 131 57 131 C56.835 131.825 56.67 132.65 56.5 133.5 C53.92705177 139.50354588 49.50354588 143.92705177 43.5 146.5 C42.675 146.665 41.85 146.83 41 147 C41 147.66 41 148.32 41 149 C37.5145007 150.06265223 34.25845793 150.166326 30.625 150.1875 C29.52414062 150.20167969 28.42328125 150.21585938 27.2890625 150.23046875 C20.07858683 149.72522164 13.52743407 146.45943534 8.37890625 141.41015625 C5 137.49521955 5 137.49521955 5 135 C4.01 134.67 3.02 134.34 2 134 C-0.40984206 127.25743153 -0.27142581 120.61886966 -0.22705078 113.52539062 C-0.22734283 112.29527252 -0.22763489 111.06515442 -0.22793579 109.79776001 C-0.22678649 106.44700263 -0.21680066 103.09649592 -0.20278788 99.74578285 C-0.19023066 96.23576226 -0.1891061 92.72573783 -0.18673706 89.21569824 C-0.18053689 82.57898054 -0.16414602 75.94232924 -0.14403808 69.3056407 C-0.11943287 61.00325241 -0.10852974 52.70085319 -0.09765625 44.3984375 C-0.07821346 29.5989067 -0.03814309 14.79952064 0 0 Z " fill="#3289D1" transform="translate(302,442)"/>
<path d="M0 0 C19.8 0 39.6 0 60 0 C60 42.9 60 85.8 60 130 C42.51 130 25.02 130 7 130 C7 129.34 7 128.68 7 128 C8.64453125 126.37890625 8.64453125 126.37890625 10.8125 124.5625 C12.21343321 123.38102081 13.6095077 122.1937496 15 121 C15.53625 120.53980469 16.0725 120.07960938 16.625 119.60546875 C22.28377803 112.99820235 22.62703375 102.8655337 22.390625 94.625 C21.5739984 87.04670513 18.90916849 79.89100219 14 74 C11.72493124 72.24087556 9.36578366 70.63785023 7 69 C7 68.34 7 67.68 7 67 C4.69 66.34 2.38 65.68 0 65 C0 43.55 0 22.1 0 0 Z " fill="#5FCEDD" transform="translate(302,292)"/>
<path d="M0 0 C1.68106339 0.00022659 1.68106339 0.00022659 3.39608765 0.00045776 C5.18703354 0.01594162 5.18703354 0.01594162 7.01416016 0.03173828 C8.24864899 0.03456818 9.48313782 0.03739807 10.7550354 0.04031372 C14.68786415 0.05148556 18.62046303 0.07658514 22.55322266 0.10205078 C25.22379224 0.11321253 27.89435967 0.12120959 30.56494141 0.12939453 C37.10277991 0.15141513 43.64048486 0.18486319 50.17822266 0.22705078 C49.06863862 3.55580289 48.25277762 4.24194777 45.61572266 6.41455078 C37.95451376 12.52843019 37.95451376 12.52843019 32.17822266 20.22705078 C31.30609131 20.25210693 30.43395996 20.27716309 29.53540039 20.30297852 C26.27194503 20.39862441 23.00863658 20.49782434 19.74536133 20.59936523 C18.33817708 20.64243736 16.93094984 20.68412942 15.52368164 20.72436523 C13.49042857 20.78274648 11.45738649 20.84623763 9.42431641 20.91064453 C8.20413818 20.94730225 6.98395996 20.98395996 5.72680664 21.02172852 C2.16420854 21.22786164 -1.29818322 21.67173393 -4.82177734 22.22705078 C-5.31677734 23.71205078 -5.31677734 23.71205078 -5.82177734 25.22705078 C-6.66740234 25.59830078 -7.51302734 25.96955078 -8.38427734 26.35205078 C-15.62517856 30.30163326 -20.36338735 36.84466238 -23.19287109 44.50439453 C-23.90845612 47.60229988 -23.85616459 50.36446209 -23.82177734 53.53955078 C-24.21100838 62.0227913 -29.52436225 66.1560708 -35.31201172 71.70458984 C-37.4850168 73.89586728 -39.29305164 76.31766902 -41.13427734 78.78955078 C-44.90598584 83.55259128 -47.96725055 86.70450728 -54.27099609 87.55908203 C-59.45203195 87.76818213 -63.53988186 87.38749745 -67.82177734 84.22705078 C-69.84645938 81.49373004 -71.82177734 78.73027268 -71.82177734 75.22705078 C-72.48177734 75.22705078 -73.14177734 75.22705078 -73.82177734 75.22705078 C-74.3753081 64.66896422 -74.3753081 64.66896422 -70.82177734 60.22705078 C-70.14115234 59.29892578 -69.46052734 58.37080078 -68.75927734 57.41455078 C-68.11990234 56.69267578 -67.48052734 55.97080078 -66.82177734 55.22705078 C-66.16177734 55.22705078 -65.50177734 55.22705078 -64.82177734 55.22705078 C-64.55365234 54.58767578 -64.28552734 53.94830078 -64.00927734 53.28955078 C-62.82177734 51.22705078 -62.82177734 51.22705078 -59.82177734 50.22705078 C-59.49177734 49.56705078 -59.16177734 48.90705078 -58.82177734 48.22705078 C-57.82177734 46.22705078 -57.82177734 46.22705078 -54.82177734 45.22705078 C-54.49177734 44.56705078 -54.16177734 43.90705078 -53.82177734 43.22705078 C-52.82177734 41.22705078 -52.82177734 41.22705078 -49.82177734 40.22705078 C-49.49177734 39.56705078 -49.16177734 38.90705078 -48.82177734 38.22705078 C-47.82177734 36.22705078 -47.82177734 36.22705078 -44.82177734 35.22705078 C-44.49177734 34.56705078 -44.16177734 33.90705078 -43.82177734 33.22705078 C-42.82177734 31.22705078 -42.82177734 31.22705078 -39.82177734 30.22705078 C-39.49177734 29.56705078 -39.16177734 28.90705078 -38.82177734 28.22705078 C-37.82177734 26.22705078 -37.82177734 26.22705078 -34.82177734 25.22705078 C-34.49177734 24.56705078 -34.16177734 23.90705078 -33.82177734 23.22705078 C-32.82177734 21.22705078 -32.82177734 21.22705078 -29.82177734 20.22705078 C-29.49177734 19.56705078 -29.16177734 18.90705078 -28.82177734 18.22705078 C-27.82177734 16.22705078 -27.82177734 16.22705078 -24.82177734 15.22705078 C-24.49177734 14.56705078 -24.16177734 13.90705078 -23.82177734 13.22705078 C-22.82177734 11.22705078 -22.82177734 11.22705078 -19.82177734 10.22705078 C-19.55365234 9.58767578 -19.28552734 8.94830078 -19.00927734 8.28955078 C-17.82177734 6.22705078 -17.82177734 6.22705078 -14.69677734 4.97705078 C-13.74802734 4.72955078 -12.79927734 4.48205078 -11.82177734 4.22705078 C-11.82177734 3.56705078 -11.82177734 2.90705078 -11.82177734 2.22705078 C-7.73185393 0.69758486 -4.36071225 -0.01973173 0 0 Z " fill="#F9B381" transform="translate(386.82177734375,31.77294921875)"/>
<path d="M0 0 C36.63 0 73.26 0 111 0 C111 37.29 111 74.58 111 113 C106.6506471 113.86987058 103.08717845 114.12894344 98.6875 114.1328125 C97.6504895 114.13424759 97.6504895 114.13424759 96.5925293 114.13571167 C95.13688058 114.13638946 93.68122878 114.13456324 92.22558594 114.13037109 C90.0070919 114.12501712 87.7888003 114.13032966 85.5703125 114.13671875 C84.15104122 114.1360579 82.73177007 114.13477659 81.3125 114.1328125 C80.02988281 114.13168457 78.74726562 114.13055664 77.42578125 114.12939453 C74.47661747 114.01800223 71.86062834 113.68849253 69 113 C69 112.67 69 112.34 69 112 C69.99330322 112.00523682 70.98660645 112.01047363 72.01000977 112.01586914 C75.72061246 112.03406769 79.43121126 112.04548598 83.1418457 112.05493164 C84.74308945 112.05993805 86.34432867 112.06674515 87.94555664 112.07543945 C90.25668458 112.08766764 92.56775169 112.09326536 94.87890625 112.09765625 C95.58648575 112.10281754 96.29406525 112.10797882 97.02308655 112.11329651 C101.52513361 112.11379644 105.47295858 111.6467202 110 111 C110 84.27 110 57.54 110 30 C84.26 30 58.52 30 32 30 C32 33.3 32 36.6 32 40 C31.67 40 31.34 40 31 40 C31 33.4 31 26.8 31 20 C20.77 20 10.54 20 0 20 C0 13.4 0 6.8 0 0 Z " fill="#F8B381" transform="translate(501,32)"/>
<path d="M0 0 C7.54248427 5.59819944 13.52944507 11.44139294 15 21 C15.0659735 23.10323534 15.08562245 25.20835724 15.0625 27.3125 C15.05347656 28.38113281 15.04445312 29.44976562 15.03515625 30.55078125 C15.02355469 31.35902344 15.01195312 32.16726563 15 33 C14.34 33 13.68 33 13 33 C12.9175 34.03125 12.835 35.0625 12.75 36.125 C11.3351033 43.4352996 6.50073662 48.42050986 0.625 52.75 C-2.57050383 54.27166849 -5.49519033 54.65639121 -9 55 C-9 55.66 -9 56.32 -9 57 C-20.47206374 57.33413778 -28.6005642 55.90370486 -37.21875 47.953125 C-43.67409219 41.17033791 -44.99946732 36.22160446 -45.3125 27.0625 C-45.06177407 17.07107162 -42.27388554 11.4170167 -35.34375 4.171875 C-26.19214331 -4.30861387 -11.06095767 -6.14067177 0 0 Z " fill="#070706" transform="translate(217,225)"/>
<path d="M0 0 C19.8 0 39.6 0 60 0 C60 42.9 60 85.8 60 130 C42.51 130 25.02 130 7 130 C7 129.34 7 128.68 7 128 C9.5 126.375 9.5 126.375 12 125 C11.67 125.99 11.34 126.98 11 128 C20.57 128.33 30.14 128.66 40 129 C40 86.76 40 44.52 40 1 C27.13 1 14.26 1 1 1 C1 21.79 1 42.58 1 64 C1.99 64 2.98 64 4 64 C3.505 64.99 3.505 64.99 3 66 C2.01 65.67 1.02 65.34 0 65 C0 43.55 0 22.1 0 0 Z " fill="#58C3D0" transform="translate(302,292)"/>
<path d="M0 0 C6.6 0 13.2 0 20 0 C20 6.6 20 13.2 20 20 C26.6 20 33.2 20 40 20 C40 26.6 40 33.2 40 40 C33.4 40 26.8 40 20 40 C20 46.6 20 53.2 20 60 C13.4 60 6.8 60 0 60 C0 53.4 0 46.8 0 40 C-6.6 40 -13.2 40 -20 40 C-20 33.4 -20 26.8 -20 20 C-13.4 20 -6.8 20 0 20 C0 13.4 0 6.8 0 0 Z " fill="#030303" transform="translate(232,112)"/>
<path d="M0 0 C1.32 0 2.64 0 4 0 C4 0.66 4 1.32 4 2 C11.92 2.66 19.84 3.32 28 4 C21.25162875 11.87309979 21.25162875 11.87309979 18.21362305 14.8840332 C17.53659836 15.55775467 16.85957367 16.23147614 16.16203308 16.9256134 C15.45242935 17.62691879 14.74282562 18.32822418 14.01171875 19.05078125 C13.26791458 19.7907988 12.52411041 20.53081635 11.75776672 21.29325867 C9.40343581 23.63546127 7.04587744 25.97437236 4.6875 28.3125 C1.56356139 31.40991371 -1.55709779 34.51057741 -4.67578125 37.61328125 C-5.39550613 38.32470779 -6.11523102 39.03613434 -6.85676575 39.76911926 C-7.51802963 40.42707993 -8.17929352 41.08504059 -8.8605957 41.76293945 C-9.44428421 42.34139114 -10.02797272 42.91984283 -10.62934875 43.51582336 C-12.10226245 44.97262292 -12.10226245 44.97262292 -13 47 C-15.546875 47.8515625 -15.546875 47.8515625 -18.75 48.625 C-20.32007813 49.01558594 -20.32007813 49.01558594 -21.921875 49.4140625 C-24.71293916 49.94535644 -27.17069211 50.1152681 -30 50 C-30 50.66 -30 51.32 -30 52 C-32.475 52.495 -32.475 52.495 -35 53 C-36.32175113 49.3651844 -35.65798652 47.3477705 -34.25 43.8125 C-33.87875 42.8534375 -33.5075 41.894375 -33.125 40.90625 C-32.75375 39.9471875 -32.3825 38.988125 -32 38 C-31.40509646 36.27477975 -30.82050023 34.545943 -30.25 32.8125 C-30.00765625 32.07644531 -29.7653125 31.34039062 -29.515625 30.58203125 C-29.26039063 29.79892578 -29.26039063 29.79892578 -29 29 C-28.34 29 -27.68 29 -27 29 C-26.731875 28.360625 -26.46375 27.72125 -26.1875 27.0625 C-25 25 -25 25 -22 24 C-21.67 23.34 -21.34 22.68 -21 22 C-20 20 -20 20 -17 19 C-16.67 18.34 -16.34 17.68 -16 17 C-15 15 -15 15 -12 14 C-11.67 13.34 -11.34 12.68 -11 12 C-10 10 -10 10 -7 9 C-6.67 8.34 -6.34 7.68 -6 7 C-5 5 -5 5 -2 4 C-0.79117904 1.99983534 -0.79117904 1.99983534 0 0 Z " fill="#5DCAD9" transform="translate(379,118)"/>
<path d="M0 0 C3.2175 -0.04125 6.435 -0.0825 9.75 -0.125 C11.26158691 -0.15231201 11.26158691 -0.15231201 12.80371094 -0.18017578 C13.60583008 -0.1851709 14.40794922 -0.19016602 15.234375 -0.1953125 C16.05131836 -0.20578613 16.86826172 -0.21625977 17.70996094 -0.22705078 C22.82586913 0.28017679 25.65392419 3.29218627 29 7 C29.9702889 9.91086669 30.16467847 11.90223685 30.1875 14.9375 C30.20167969 15.79214844 30.21585937 16.64679688 30.23046875 17.52734375 C29.88395552 21.24501962 28.79608705 23.30342383 26 25.75 C24 27 24 27 22 27 C22 27.66 22 28.32 22 29 C19.17588235 29.94137255 17.47081968 30.11725382 14.55078125 30.09765625 C13.78677002 30.09515869 13.02275879 30.09266113 12.2355957 30.09008789 C11.27097412 30.08098389 10.30635254 30.07187988 9.3125 30.0625 C4.7028125 30.0315625 4.7028125 30.0315625 0 30 C0 20.1 0 10.2 0 0 Z " fill="#F5B98E" transform="translate(382,492)"/>
<path d="M0 0 C3.031875 -0.04125 6.06375 -0.0825 9.1875 -0.125 C10.13391357 -0.14320801 11.08032715 -0.16141602 12.05541992 -0.18017578 C17.43183763 -0.21555821 21.59865059 -0.12527236 25.80078125 3.59375 C29.55689961 8.33014731 30.62616127 11.65971893 30.30859375 17.703125 C30.01356005 19.89907202 29.72277707 21.9039465 29 24 C24.82142857 27 24.82142857 27 22 27 C22 27.66 22 28.32 22 29 C19.17588235 29.94137255 17.47081968 30.11725382 14.55078125 30.09765625 C13.78677002 30.09515869 13.02275879 30.09266113 12.2355957 30.09008789 C11.27097412 30.08098389 10.30635254 30.07187988 9.3125 30.0625 C4.7028125 30.0315625 4.7028125 30.0315625 0 30 C0 20.1 0 10.2 0 0 Z " fill="#F5B98E" transform="translate(382,392)"/>
<path d="M0 0 C3.031875 -0.04125 6.06375 -0.0825 9.1875 -0.125 C10.13391357 -0.14320801 11.08032715 -0.16141602 12.05541992 -0.18017578 C17.43183763 -0.21555821 21.59865059 -0.12527236 25.80078125 3.59375 C29.55689961 8.33014731 30.62616127 11.65971893 30.30859375 17.703125 C30.01356005 19.89907202 29.72277707 21.9039465 29 24 C24.82142857 27 24.82142857 27 22 27 C22 27.66 22 28.32 22 29 C19.17588235 29.94137255 17.47081968 30.11725382 14.55078125 30.09765625 C13.78677002 30.09515869 13.02275879 30.09266113 12.2355957 30.09008789 C11.27097412 30.08098389 10.30635254 30.07187988 9.3125 30.0625 C4.7028125 30.0315625 4.7028125 30.0315625 0 30 C0 20.1 0 10.2 0 0 Z " fill="#F5B98E" transform="translate(382,342)"/>
<path d="M0 0 C3.031875 -0.04125 6.06375 -0.0825 9.1875 -0.125 C10.13391357 -0.14320801 11.08032715 -0.16141602 12.05541992 -0.18017578 C17.43183763 -0.21555821 21.59865059 -0.12527236 25.80078125 3.59375 C29.54311522 8.31276545 30.63634569 11.68228787 30.40625 17.703125 C29.76613551 21.32223386 28.81934211 23.30363906 25.99609375 25.703125 C17.14338563 31.05529663 10.10679624 30.48512622 0 30 C0 20.1 0 10.2 0 0 Z " fill="#F6BA8E" transform="translate(382,442)"/>
<path d="M0 0 C3.28731112 1.75106275 6.30927864 3.61855728 8 7 C8.39285161 11.08565674 8.25221522 13.48671303 6.42871094 17.19775391 C4 20 4 20 0.70019531 20.68115234 C-0.57758789 20.64973145 -1.85537109 20.61831055 -3.171875 20.5859375 C-3.8542926 20.57744781 -4.53671021 20.56895813 -5.23980713 20.56021118 C-7.4115038 20.52672057 -9.57943383 20.45147242 -11.75 20.375 C-13.22520663 20.34489374 -14.7004717 20.31751905 -16.17578125 20.29296875 C-19.78507044 20.22695085 -23.39216742 20.12346917 -27 20 C-25.47426082 16.7567598 -24.04448036 14.95666137 -21.25 12.6875 C-17.8938182 9.86636168 -15.11107126 6.93687689 -12.421875 3.48046875 C-8.83306797 -0.25622868 -5.00603724 -0.59393662 0 0 Z " fill="#E64D40" transform="translate(474,32)"/>
<path d="M0 0 C4.23717907 1.51327824 5.72106021 4.25077648 8 8 C8.86625 9.0828125 8.86625 9.0828125 9.75 10.1875 C11.75853794 14.70671036 11.7815137 19.1475104 11 24 C9.33717942 27.1716763 7.24863067 29.37568466 4 31 C0.6875 31.375 0.6875 31.375 -3 31 C-6.28983107 28.28231346 -8.67746966 26.07812163 -9.34375 21.78515625 C-9.82206218 13.45056651 -7.05812581 8.48859125 -2 2 C-1.34 1.34 -0.68 0.68 0 0 Z " fill="#E97C00" transform="translate(331,201)"/>
<path d="M0 0 C6.6 0 13.2 0 20 0 C20 6.6 20 13.2 20 20 C13.4 20 6.8 20 0 20 C0 13.4 0 6.8 0 0 Z " fill="#010304" transform="translate(322,522)"/>
<path d="M0 0 C6.6 0 13.2 0 20 0 C20 6.6 20 13.2 20 20 C13.4 20 6.8 20 0 20 C0 13.4 0 6.8 0 0 Z " fill="#010304" transform="translate(312,462)"/>
<path d="M0 0 C5.53846154 3.07692308 5.53846154 3.07692308 7 6 C7.67660495 11.86390959 7.67660495 11.86390959 5.953125 14.7578125 C2.99435999 18.36054402 1.31048895 19.85164276 -3.3125 20.375 C-7 20 -7 20 -9.875 17.625 C-13.16087102 13.56598286 -13.44427743 11.24247372 -13 6 C-9.30298192 0.33123894 -6.70067405 -0.5583895 0 0 Z " fill="#EEEDEB" transform="translate(205,242)"/>
<path d="M0 0 C-2 4 -2 4 -3.05528069 5.69295883 C-4.37488175 8.91547576 -4.24546514 11.68347442 -4.24050903 15.16265869 C-4.24221788 15.88478161 -4.24392673 16.60690452 -4.24568737 17.35090995 C-4.24898186 19.77082474 -4.23797935 22.19046231 -4.22705078 24.61035156 C-4.22648666 26.3449096 -4.22680325 28.07946812 -4.22793579 29.81402588 C-4.22851026 34.52442433 -4.21674067 39.2347212 -4.20278788 43.94509602 C-4.19029626 48.86718037 -4.18911126 53.78926698 -4.18673706 58.71136475 C-4.18051768 68.03273662 -4.16410066 77.35406166 -4.14403808 86.67541289 C-4.12169334 97.28714725 -4.11068924 107.89888383 -4.10064721 118.51063585 C-4.07973484 140.34045006 -4.04454995 162.17022208 -4 184 C-4.66 183.67 -5.32 183.34 -6 183 C-6.09340346 159.8780753 -6.16395968 136.75618166 -6.20724869 113.63410664 C-6.22788196 102.89834096 -6.25601722 92.16269244 -6.30175781 81.42700195 C-6.3416021 72.07077001 -6.36742725 62.71462292 -6.37635398 53.35830849 C-6.3815728 48.40327369 -6.39385487 43.44848163 -6.42292023 38.49352455 C-6.45005123 33.83059098 -6.45844967 29.16800035 -6.45243073 24.50499535 C-6.453532 22.79292818 -6.46149972 21.08084966 -6.4768219 19.36885071 C-6.49671421 17.03175871 -6.49194283 14.69596271 -6.48101807 12.35884094 C-6.48470524 11.0508167 -6.48839241 9.74279245 -6.49219131 8.39513111 C-5.93561962 4.55590473 -4.51589761 0 0 0 Z " fill="#1C1C1C" transform="translate(38,423)"/>
<path d="M0 0 C-1.58393312 3.88240431 -4.2257493 6.50849314 -7.15234375 9.41113281 C-7.67611603 9.93840973 -8.19988831 10.46568665 -8.73953247 11.00894165 C-10.4672002 12.74539193 -12.2020569 14.47444812 -13.9375 16.203125 C-15.14083659 17.40780883 -16.34387615 18.61278942 -17.54663086 19.8180542 C-20.06528204 22.33965159 -22.58750985 24.85760139 -25.11230469 27.37304688 C-28.35419335 30.60351684 -31.58698887 33.84291452 -34.81718445 37.08507156 C-37.29791254 39.5730109 -39.78336486 42.05618646 -42.27029419 44.53792572 C-43.46472157 45.73101583 -44.65765651 46.92560193 -45.84909058 48.12168121 C-47.51049974 49.78814615 -49.17814391 51.44810393 -50.84765625 53.10644531 C-51.58956711 53.85442886 -51.58956711 53.85442886 -52.34646606 54.61752319 C-55.77146778 58 -55.77146778 58 -58 58 C-56.41606688 54.11759569 -53.7742507 51.49150686 -50.84765625 48.58886719 C-50.32388397 48.06159027 -49.80011169 47.53431335 -49.26046753 46.99105835 C-47.5327998 45.25460807 -45.7979431 43.52555188 -44.0625 41.796875 C-42.85916341 40.59219117 -41.65612385 39.38721058 -40.45336914 38.1819458 C-37.93471796 35.66034841 -35.41249015 33.14239861 -32.88769531 30.62695312 C-29.64580665 27.39648316 -26.41301113 24.15708548 -23.18281555 20.91492844 C-20.70208746 18.4269891 -18.21663514 15.94381354 -15.72970581 13.46207428 C-14.53527843 12.26898417 -13.34234349 11.07439807 -12.15090942 9.87831879 C-10.48950026 8.21185385 -8.82185609 6.55189607 -7.15234375 4.89355469 C-6.41043289 4.14557114 -6.41043289 4.14557114 -5.65353394 3.38247681 C-2.22853222 0 -2.22853222 0 0 0 Z " fill="#303030" transform="translate(358,23)"/>
<path d="M0 0 C0 6.6 0 13.2 0 20 C-6.91970803 18.84671533 -6.91970803 18.84671533 -9 16 C-10.3922653 11.8232041 -10.62091133 7.9144766 -9.25 3.6875 C-6.65070496 0.1784517 -4.26784331 0 0 0 Z " fill="#F3A369" transform="translate(262,472)"/>
<path d="M0 0 C0.67076489 2.76989964 1.33676317 5.54079742 2 8.3125 C2.19078125 9.09818359 2.3815625 9.88386719 2.578125 10.69335938 C2.75859375 11.45068359 2.9390625 12.20800781 3.125 12.98828125 C3.29257813 13.68477783 3.46015625 14.38127441 3.6328125 15.09887695 C4 17 4 17 4 20 C-3.22174288 19.75927524 -3.22174288 19.75927524 -6.5625 16.5 C-8.40577611 12.01202338 -8.54078649 8.613605 -7 4 C-3.19512195 0 -3.19512195 0 0 0 Z " fill="#EE9F66" transform="translate(140,552)"/>
<path d="M0 0 C0.66 0 1.32 0 2 0 C2.33 1.65 2.66 3.3 3 5 C3.66 5 4.32 5 5 5 C5.99 7.97 6.98 10.94 8 14 C8.66 14 9.32 14 10 14 C10.66 15.65 11.32 17.3 12 19 C6.34037856 19.34650743 2.96111218 18.48055609 -2 16 C-3 15 -3 15 -3.1328125 12.56640625 C-3.13023437 11.57511719 -3.12765625 10.58382813 -3.125 9.5625 C-3.12757813 8.57378906 -3.13015625 7.58507812 -3.1328125 6.56640625 C-3 4 -3 4 -2 2 C-1.34 2 -0.68 2 0 2 C0 1.34 0 0.68 0 0 Z " fill="#EB9D65" transform="translate(170,411)"/>
<path d="M0 0 C2.1875 1.5625 2.1875 1.5625 3.1875 3.5625 C3.44535684 8.11797083 3.18601462 11.4405636 1.1875 15.5625 C0.8575 14.5725 0.5275 13.5825 0.1875 12.5625 C-1.13102905 11.86701215 -2.46755772 11.20542495 -3.8125 10.5625 C-5.36737042 9.26902028 -6.88689347 7.93226303 -8.375 6.5625 C-10.80979578 4.32889308 -13.05587668 2.40024888 -15.8125 0.5625 C-9.78735405 -2.45007297 -6.27357871 -3.20649578 0 0 Z " fill="#ED9E65" transform="translate(478.8125,144.4375)"/>
<path d="M0 0 C0.66 0.33 1.32 0.66 2 1 C-4.26928707 8.11324221 -10.78142049 14.91695541 -17.50390625 21.6015625 C-18.47775497 22.57353962 -19.45137832 23.54574259 -20.42478943 24.51815796 C-22.95253582 27.0421375 -25.48327293 29.56309627 -28.01470947 32.08337402 C-30.61127837 34.66960129 -33.20491842 37.25876239 -35.79882812 39.84765625 C-40.86307046 44.90126454 -45.93048753 49.95167797 -51 55 C-51.66 54.67 -52.32 54.34 -53 54 C-51.71937515 52.2925002 -50.38232443 50.62626404 -49 49 C-48.34 49 -47.68 49 -47 49 C-46.5978125 48.0409375 -46.5978125 48.0409375 -46.1875 47.0625 C-45 45 -45 45 -42 44 C-41.67 43.34 -41.34 42.68 -41 42 C-40 40 -40 40 -37 39 C-36.67 38.34 -36.34 37.68 -36 37 C-35 35 -35 35 -32 34 C-31.67 33.34 -31.34 32.68 -31 32 C-30 30 -30 30 -27 29 C-26.67 28.34 -26.34 27.68 -26 27 C-25 25 -25 25 -22 24 C-21.67 23.34 -21.34 22.68 -21 22 C-20 20 -20 20 -17 19 C-16.67 18.34 -16.34 17.68 -16 17 C-15 15 -15 15 -12 14 C-11.67 13.34 -11.34 12.68 -11 12 C-10 10 -10 10 -7 9 C-6.67 8.34 -6.34 7.68 -6 7 C-5 5 -5 5 -2 4 C-0.79117904 1.99983534 -0.79117904 1.99983534 0 0 Z " fill="#C38C65" transform="translate(369,38)"/>
<path d="M0 0 C2.11277125 0.00373654 4.22554426 0.00658048 6.33831787 0.00857544 C11.86200867 0.0161614 17.38559199 0.03576591 22.90924072 0.0579834 C28.56057278 0.0785511 34.21192244 0.08760038 39.86328125 0.09765625 C50.92452603 0.11901714 61.98569153 0.15309132 73.046875 0.1953125 C73.046875 0.5253125 73.046875 0.8553125 73.046875 1.1953125 C71.43100243 1.20744278 71.43100243 1.20744278 69.78248596 1.21981812 C59.55996248 1.29778049 49.33756396 1.38563949 39.11520481 1.48283958 C33.86157866 1.53248544 28.60796959 1.57881439 23.35424805 1.6171875 C18.27073085 1.65444575 13.18736887 1.70090702 8.10398674 1.75337601 C6.17826029 1.77170726 4.25250085 1.78689083 2.3267231 1.79865646 C-6.95065465 1.85728986 -16.16826953 2.03496413 -25.39868164 3.03369141 C-26.07811797 3.10219992 -26.7575543 3.17070843 -27.45757961 3.24129295 C-31.83578364 3.78041466 -35.07681479 5.1584728 -38.953125 7.1953125 C-42.328125 7.3828125 -42.328125 7.3828125 -44.953125 7.1953125 C-31.84068251 -1.54631583 -15.04713071 -0.07861364 0 0 Z " fill="#1A1A1A" transform="translate(208.953125,321.8046875)"/>
<path d="M0 0 C1.32 0.33 2.64 0.66 4 1 C3.56026855 1.36681885 3.12053711 1.7336377 2.66748047 2.11157227 C-1.65614085 5.79975393 -5.7473672 9.67476307 -9.7421875 13.71484375 C-10.24083313 14.21899811 -10.73947876 14.72315247 -11.25323486 15.24258423 C-13.32675442 17.34380869 -15.39637703 19.44878913 -17.46191406 21.55786133 C-18.98853669 23.11449651 -20.52117047 24.66500464 -22.0546875 26.21484375 C-22.95687012 27.13386475 -23.85905273 28.05288574 -24.78857422 28.99975586 C-27 31 -27 31 -29 31 C-29.33 33.97 -29.66 36.94 -30 40 C-30.66 40 -31.32 40 -32 40 C-31.34 36.7 -30.68 33.4 -30 30 C-29.01 29.67 -28.02 29.34 -27 29 C-26.67 28.34 -26.34 27.68 -26 27 C-25 25 -25 25 -22 24 C-21.67 23.34 -21.34 22.68 -21 22 C-20 20 -20 20 -17 19 C-16.67 18.34 -16.34 17.68 -16 17 C-15 15 -15 15 -12 14 C-11.67 13.34 -11.34 12.68 -11 12 C-10 10 -10 10 -7 9 C-6.67 8.34 -6.34 7.68 -6 7 C-5 5 -5 5 -2 4 C-0.79117904 1.99983534 -0.79117904 1.99983534 0 0 Z " fill="#479AA5" transform="translate(379,118)"/>
<path d="M0 0 C1.08349228 -0.00096176 2.16698456 -0.00192352 3.28330994 -0.00291443 C5.13026207 -0.0217141 5.13026207 -0.0217141 7.01452637 -0.04089355 C8.35405029 -0.02862653 9.69356407 -0.0152067 11.0330658 -0.00071716 C12.41021919 -0.00154605 13.78737249 -0.00400618 15.16452026 -0.00802612 C18.04719408 -0.01088194 20.92908995 0.00379573 23.81163025 0.03126526 C27.50648567 0.06538164 31.19995326 0.05931824 34.89487553 0.04060268 C37.73711723 0.03003535 40.57903583 0.03896714 43.42124748 0.0539875 C44.78359963 0.05916971 46.14598551 0.05868699 47.50833321 0.05244255 C49.41123447 0.04699348 51.3141528 0.07020686 53.21690369 0.09474182 C54.29960037 0.1009404 55.38229706 0.10713898 56.49780273 0.11352539 C59.18540955 0.62818909 59.18540955 0.62818909 61.05844116 2.66152954 C61.43034073 3.31052719 61.8022403 3.95952484 62.18540955 4.62818909 C61.64517151 4.30418121 61.10493347 3.98017334 60.54832458 3.64634705 C57.67345089 2.4075909 55.50717971 2.36088037 52.37876892 2.33766174 C51.21075745 2.32490204 50.04274597 2.31214233 48.83934021 2.29899597 C47.58198059 2.29677032 46.32462097 2.29454468 45.02915955 2.29225159 C43.73473938 2.28559479 42.44031921 2.27893799 41.10667419 2.27207947 C38.36970177 2.26012058 35.63285546 2.25639735 32.89585876 2.25758362 C29.39177935 2.2577871 25.88850832 2.23045016 22.38462067 2.1960392 C19.03695435 2.16843899 15.68943822 2.1696218 12.34165955 2.16725159 C11.08429993 2.15288055 9.82694031 2.13850952 8.53147888 2.123703 C7.36346741 2.12985626 6.19545593 2.13600952 4.99205017 2.14234924 C3.96486877 2.13949921 2.93768738 2.13664917 1.87937927 2.13371277 C-1.4795524 2.7502424 -2.66761602 4.04508795 -4.81459045 6.62818909 C-5.47459045 6.29818909 -6.13459045 5.96818909 -6.81459045 5.62818909 C-3.64718702 0.81401651 -3.64718702 0.81401651 0 0 Z " fill="#DA9D71" transform="translate(438.81459045410156,121.37181091308594)"/>
<path d="M0 0 C-2 4 -2 4 -3.05038452 5.86553955 C-4.09587375 8.21549642 -4.27366428 9.84097608 -4.31884766 12.40136719 C-4.33871735 13.2619574 -4.35858704 14.12254761 -4.37905884 15.00921631 C-4.39061005 15.92914368 -4.40216125 16.84907104 -4.4140625 17.796875 C-4.43342865 18.74564514 -4.4527948 19.69441528 -4.4727478 20.67193604 C-4.53245659 23.69786633 -4.57889433 26.72383484 -4.625 29.75 C-4.66318777 31.80340187 -4.70223997 33.85678786 -4.7421875 35.91015625 C-4.83815108 40.93997496 -4.92221446 45.96986865 -5 51 C-5.33 51 -5.66 51 -6 51 C-6.10151557 44.54058268 -6.17151376 38.08137148 -6.21972656 31.62133789 C-6.23982767 29.42431958 -6.26711306 27.22735468 -6.30175781 25.03051758 C-6.35034093 21.87047134 -6.37298405 18.71113313 -6.390625 15.55078125 C-6.41127014 14.57039383 -6.43191528 13.59000641 -6.45318604 12.57991028 C-6.45463278 8.17165816 -6.4128043 5.6866453 -4.10058594 1.84057617 C-2 0 -2 0 0 0 Z " fill="#1A1A1A" transform="translate(38,423)"/>
<path d="M0 0 C-2 4 -2 4 -3.05038452 5.87701416 C-4.07541789 8.16860626 -4.27262482 9.72174009 -4.31884766 12.21777344 C-4.33871735 13.03832214 -4.35858704 13.85887085 -4.37905884 14.70428467 C-4.39061005 15.58046448 -4.40216125 16.45664429 -4.4140625 17.359375 C-4.43342865 18.26375305 -4.4527948 19.1681311 -4.4727478 20.09991455 C-4.53243831 22.98318099 -4.57888686 25.86648758 -4.625 28.75 C-4.66318947 30.70704848 -4.70224177 32.66408033 -4.7421875 34.62109375 C-4.83813125 39.41392711 -4.92220127 44.20683915 -5 49 C-5.33 49 -5.66 49 -6 49 C-6.09898364 42.82532414 -6.1715236 36.65111157 -6.21972656 30.47583008 C-6.23982397 28.37581333 -6.26710666 26.27585242 -6.30175781 24.17602539 C-6.3503577 21.15497042 -6.37298762 18.13465623 -6.390625 15.11328125 C-6.41127014 14.17664139 -6.43191528 13.24000153 -6.45318604 12.27497864 C-6.45466496 7.96466981 -6.37939951 5.62561907 -4.10058594 1.86791992 C-2 0 -2 0 0 0 Z " fill="#1A1A1A" transform="translate(288,273)"/>
<path d="M0 0 C2.69991445 1.34995722 3.27408241 3.21084797 4.37158203 5.92724609 C5.46670944 9.53937961 5.4852269 13.0619614 5.4375 16.8125 C5.43266602 17.99465088 5.43266602 17.99465088 5.42773438 19.20068359 C5.27987348 25.39681996 4.0672398 30.55017214 1 36 C0.34 36 -0.32 36 -1 36 C-0.01 32.37 0.98 28.74 2 25 C2.66 25 3.32 25 4 25 C3.55046968 16.39691968 2.13898002 8.34067679 0 0 Z " fill="#A5A5A5" transform="translate(358,203)"/>
<path d="M0 0 C0.33 0.66 0.66 1.32 1 2 C-0.26244635 3.65227538 -1.53525235 5.29663951 -2.8125 6.9375 C-3.87404297 8.31228516 -3.87404297 8.31228516 -4.95703125 9.71484375 C-7 12 -7 12 -10 13 C-10.144375 13.61875 -10.28875 14.2375 -10.4375 14.875 C-11.1872454 17.7073715 -12.59730651 18.44987517 -15 20 C-15.66 19.67 -16.32 19.34 -17 19 C-16.35933594 18.29875 -15.71867187 17.5975 -15.05859375 16.875 C-9.97762276 11.3018336 -4.93526783 5.70333931 0 0 Z " fill="#C5885C" transform="translate(459,182)"/>
<path d="M0 0 C-3.26931088 3.26931088 -8.07492717 2.76028566 -12.52734375 3.12304688 C-17.33851715 3.58905058 -20.69130314 4.66243718 -25 7 C-28.375 7.1875 -28.375 7.1875 -31 7 C-21.9609715 0.973981 -10.66351034 -0.41013501 0 0 Z " fill="#606060" transform="translate(195,322)"/>
<path d="M0 0 C0.99 0.495 0.99 0.495 2 1 C2 2.32 2 3.64 2 5 C2.66 5 3.32 5 4 5 C4.05425226 7.39614126 4.09379027 9.79103853 4.125 12.1875 C4.15013672 13.19780273 4.15013672 13.19780273 4.17578125 14.22851562 C4.21538674 18.28807807 3.80020002 21.34998815 2 25 C1.67 25 1.34 25 1 25 C1.165 24.030625 1.33 23.06125 1.5 22.0625 C2.56932488 14.36026136 1.98776394 7.50735847 0 0 Z " fill="#A6A6A6" transform="translate(429,494)"/>
<path d="M0 0 C0.99 0.495 0.99 0.495 2 1 C2 2.32 2 3.64 2 5 C2.66 5 3.32 5 4 5 C4.0544452 7.20805524 4.09299283 9.41650554 4.125 11.625 C4.14820313 12.85476563 4.17140625 14.08453125 4.1953125 15.3515625 C4.0030428 18.94316041 3.30258556 21.66661175 2 25 C1.67 25 1.34 25 1 25 C1.165 24.030625 1.33 23.06125 1.5 22.0625 C2.56932488 14.36026136 1.98776394 7.50735847 0 0 Z " fill="#A4A4A4" transform="translate(429,444)"/>
<path d="M0 0 C0.33 3.63 0.66 7.26 1 11 C-1 8 -1 8 -2 3 C-6.29 3.66 -10.58 4.32 -15 5 C-15 4.34 -15 3.68 -15 3 C-13.0636296 2.49564306 -11.12585854 1.99666126 -9.1875 1.5 C-8.10855469 1.2215625 -7.02960938 0.943125 -5.91796875 0.65625 C-3 0 -3 0 0 0 Z " fill="#696969" transform="translate(374,182)"/>
<path d="M0 0 C2.25247061 0.42459673 4.50193165 0.86518028 6.75 1.3125 C8.00296875 1.55613281 9.2559375 1.79976562 10.546875 2.05078125 C13.7833062 2.94043372 15.54111953 3.783282 18 6 C11.32257319 6.50080701 5.78794849 4.13513876 0 1 C0 0.67 0 0.34 0 0 Z " fill="#8C6A51" transform="translate(552,138)"/>
<path d="M0 0 C-1.59092052 4.13639336 -4.60474918 7.23213248 -8 10 C-8.66 10 -9.32 10 -10 10 C-8.50006099 6.10015857 -4.53875449 0 0 0 Z " fill="#2D2017" transform="translate(378,58)"/>
<path d="M0 0 C1.32 0.33 2.64 0.66 4 1 C4.33 1.66 4.66 2.32 5 3 C4.278125 3.061875 3.55625 3.12375 2.8125 3.1875 C-0.84657625 4.24456647 -2.49211602 6.20550071 -5 9 C-5.66 8.67 -6.32 8.34 -7 8 C-4.69 5.36 -2.38 2.72 0 0 Z " fill="#C9C9C9" transform="translate(511,208)"/>
<path d="M0 0 C0 0.66 0 1.32 0 2 C-1.175625 2.680625 -1.175625 2.680625 -2.375 3.375 C-5.1235949 5.07651113 -5.87921032 6.04519084 -7 9 C-7.33 7.02 -7.66 5.04 -8 3 C-2.25 0 -2.25 0 0 0 Z " fill="#463224" transform="translate(180,407)"/>
<path d="M0 0 C0.66 0.33 1.32 0.66 2 1 C0.71937515 2.7074998 -0.61767557 4.37373596 -2 6 C-2.66 6 -3.32 6 -4 6 C-4.33 6.66 -4.66 7.32 -5 8 C-4.64950425 4.75791433 -4.43778819 3.38472296 -1.9375 1.1875 C-1.298125 0.795625 -0.65875 0.40375 0 0 Z " fill="#C2906D" transform="translate(236,464)"/>
<path d="M0 0 C0.66 0 1.32 0 2 0 C0.50163895 3.11198065 -1.19933758 6.0534615 -3 9 C-3.75 7.3125 -3.75 7.3125 -4 5 C-2.1875 2.25 -2.1875 2.25 0 0 Z " fill="#3E3E3E" transform="translate(36,423)"/>
<path d="M0 0 C0.66 0 1.32 0 2 0 C0.50163895 3.11198065 -1.19933758 6.0534615 -3 9 C-3.75 7.3125 -3.75 7.3125 -4 5 C-2.1875 2.25 -2.1875 2.25 0 0 Z " fill="#3D3D3D" transform="translate(286,273)"/>
<path d="M0 0 C0.33 0.66 0.66 1.32 1 2 C-2.625 6.875 -2.625 6.875 -6 8 C-4.55746343 4.63408134 -2.66735273 2.48952921 0 0 Z " fill="#BA8056" transform="translate(459,182)"/>
<path d="M0 0 C-1.45255699 3.82946843 -3.42895561 5.12050295 -7 7 C-3.86206897 0 -3.86206897 0 0 0 Z " fill="#443123" transform="translate(508,183)"/>
<path d="M0 0 C0.66 0 1.32 0 2 0 C0.79618552 2.49361571 -0.45428722 4.68143083 -2 7 C-2.66 7 -3.32 7 -4 7 C-2.92598892 4.08482708 -2.22189824 2.22189824 0 0 Z " fill="#3E2F24" transform="translate(256,523)"/>
<path d="M0 0 C0.33 0.99 0.66 1.98 1 3 C-0.32 4.32 -1.64 5.64 -3 7 C-3.99 6.67 -4.98 6.34 -6 6 C-4.625 4.5 -4.625 4.5 -3 3 C-2.34 3 -1.68 3 -1 3 C-0.67 2.01 -0.34 1.02 0 0 Z " fill="#402E21" transform="translate(437,32)"/>
</svg>
