<?xml version="1.0" encoding="UTF-8"?>
<svg version="1.1" xmlns="http://www.w3.org/2000/svg" width="256" height="256">
<path d="M0 0 C5.71521013 3.63056381 7.17053427 5.61521774 8.90625 12.2109375 C10.8654269 15.25103959 11.93418899 16.89501767 15.40625 18.0234375 C20.02671423 20.21815801 21.09824988 25.04908829 22.78515625 29.5625 C25.31885148 37.86126989 25.32924407 46.22073481 25.35229492 54.84570312 C25.44753156 60.64724032 25.54469299 63.97981958 29.90625 68.2109375 C32.989875 73.11134792 32.4928691 78.62339057 31.90625 84.2109375 C30.291335 89.2942495 26.65233913 93.74643686 21.90625 96.2109375 C18.26806015 97.17443054 14.64083181 97.76571156 10.90625 98.2109375 C10.78507813 98.82582031 10.66390625 99.44070312 10.5390625 100.07421875 C10.28769531 101.28658203 10.28769531 101.28658203 10.03125 102.5234375 C9.78761719 103.72419922 9.78761719 103.72419922 9.5390625 104.94921875 C8.90625 107.2109375 8.90625 107.2109375 6.90625 110.2109375 C7.07582841 112.1124121 7.07582841 112.1124121 7.90625 114.2109375 C8.23496094 115.19449219 8.56367188 116.17804688 8.90234375 117.19140625 C10.56896264 120.89952037 11.95501878 123.38320658 14.90625 126.2109375 C20.6951103 128.00190502 26.92805682 127.36918379 32.90625 127.2109375 C33.89625 127.5409375 34.88625 127.8709375 35.90625 128.2109375 C35.90625 120.9509375 35.90625 113.6909375 35.90625 106.2109375 C34.58625 105.5509375 33.26625 104.8909375 31.90625 104.2109375 C31.863529 102.54481845 31.86561168 100.87710865 31.90625 99.2109375 C33.84668742 97.27050008 37.50498735 98.04711577 40.15234375 98.04296875 C40.87865494 98.03964035 41.60496613 98.03631195 42.35328674 98.03288269 C43.89250046 98.02781075 45.4317252 98.02547445 46.97094727 98.02563477 C49.33042471 98.02344984 51.68943361 98.00530185 54.04882812 97.98632812 C55.54166506 97.98339398 57.03450423 97.98140933 58.52734375 97.98046875 C59.23571884 97.97328323 59.94409393 97.96609772 60.67393494 97.95869446 C65.67742663 97.98211413 65.67742663 97.98211413 67.90625 100.2109375 C67.53125 102.8359375 67.53125 102.8359375 66.90625 105.2109375 C65.58625 105.5409375 64.26625 105.8709375 62.90625 106.2109375 C62.90625 108.5209375 62.90625 110.8309375 62.90625 113.2109375 C61.91625 113.5409375 60.92625 113.8709375 59.90625 114.2109375 C60.02034593 115.67016443 60.14790544 117.12834348 60.28125 118.5859375 C60.35085937 119.39804688 60.42046875 120.21015625 60.4921875 121.046875 C60.73517588 123.41427941 60.73517588 123.41427941 62.90625 125.2109375 C62.90625 126.5309375 62.90625 127.8509375 62.90625 129.2109375 C64.123125 129.1490625 65.34 129.0871875 66.59375 129.0234375 C70.52087154 129.03037588 72.77211973 129.70363329 75.90625 132.2109375 C80.42515661 137.09722375 79.38149111 142.84567153 79.34375 149.1484375 C79.36373047 150.32857422 79.38371094 151.50871094 79.40429688 152.72460938 C79.40365234 153.86349609 79.40300781 155.00238281 79.40234375 156.17578125 C79.40419678 157.213396 79.4060498 158.25101074 79.40795898 159.32006836 C78.68220056 163.50192016 76.51023322 166.00795008 73.15625 168.5234375 C69.70911602 169.57672844 66.50132203 169.33077323 62.90625 169.2109375 C62.94105469 170.01917969 62.97585937 170.82742187 63.01171875 171.66015625 C63.03878906 172.72878906 63.06585938 173.79742187 63.09375 174.8984375 C63.12855469 175.95417969 63.16335937 177.00992188 63.19921875 178.09765625 C62.87034165 181.59252354 62.02918836 183.44032303 59.90625 186.2109375 C59.24625 186.2109375 58.58625 186.2109375 57.90625 186.2109375 C57.93243408 186.82090576 57.95861816 187.43087402 57.9855957 188.05932617 C58.08990719 190.83876508 58.15467982 193.61779189 58.21875 196.3984375 C58.2815918 197.83799805 58.2815918 197.83799805 58.34570312 199.30664062 C58.36181641 200.23798828 58.37792969 201.16933594 58.39453125 202.12890625 C58.42071533 202.98250732 58.44689941 203.8361084 58.47387695 204.71557617 C57.62650037 208.44075297 55.84888578 209.83036075 52.90625 212.2109375 C50.13528219 212.69825735 47.98193844 212.87691077 45.2191925 212.82566833 C44.45270722 212.83135159 43.68622194 212.83703485 42.89650983 212.84289032 C40.33190028 212.85579453 37.76886875 212.83300441 35.2043457 212.81030273 C33.36450876 212.81216676 31.52467292 212.81620333 29.68484497 212.82225037 C24.69114795 212.83223077 19.69801788 212.81104721 14.70440316 212.78377032 C9.48297473 212.75995884 4.26155789 212.76288544 -0.95991516 212.76246643 C-9.72540909 212.75783779 -18.49068586 212.7341886 -27.25610352 212.69799805 C-37.40078311 212.65622524 -47.54526724 212.63868097 -57.69002789 212.6353783 C-68.4796227 212.63178359 -79.26914685 212.61291843 -90.05871224 212.58825803 C-93.17363466 212.5820199 -96.2885517 212.57838964 -99.40347862 212.57522392 C-104.28969609 212.56933838 -109.17577285 212.55306746 -114.06193161 212.52861977 C-115.85908611 212.52115782 -117.65625834 212.51710643 -119.45342827 212.51663971 C-121.89831341 212.51538883 -124.34282308 212.50189795 -126.78764343 212.48509216 C-127.50601448 212.48750725 -128.22438553 212.48992233 -128.9645254 212.4924106 C-133.86536237 212.43932513 -133.86536237 212.43932513 -136.09375 210.2109375 C-138.29625992 209.75087404 -138.29625992 209.75087404 -140.71875 209.5859375 C-141.53601563 209.51117188 -142.35328125 209.43640625 -143.1953125 209.359375 C-144.13503906 209.28589844 -144.13503906 209.28589844 -145.09375 209.2109375 C-145.42375 210.2009375 -145.75375 211.1909375 -146.09375 212.2109375 C-149.80181596 212.32768455 -153.5094054 212.39837024 -157.21875 212.4609375 C-158.26546875 212.49445313 -159.3121875 212.52796875 -160.390625 212.5625 C-166.5988991 212.64108575 -170.47073105 212.54596511 -175.09375 208.2109375 C-178.00555255 203.44078165 -177.93208795 198.62423013 -177.09375 193.2109375 C-175.35715819 188.89947403 -172.99824738 185.07818928 -170.53125 181.1484375 C-169.51231751 179.4578519 -168.49342592 177.76724015 -167.47686768 176.07522583 C-166.41560045 174.3151467 -165.34433951 172.56143948 -164.27197266 170.80810547 C-160.98638121 165.41196697 -157.85556503 159.92617848 -154.71414185 154.44534302 C-153.13081509 151.68649918 -151.5368926 148.93377573 -149.9453125 146.1796875 C-146.21656269 139.7263886 -145.8814146 135.71690454 -145.84375 128.2734375 C-145.823125 127.25830078 -145.8025 126.24316406 -145.78125 125.19726562 C-145.77609375 124.22337891 -145.7709375 123.24949219 -145.765625 122.24609375 C-145.75160645 120.90623413 -145.75160645 120.90623413 -145.73730469 119.53930664 C-146.16750876 116.72913116 -147.06693329 116.09993594 -149.09375 114.2109375 C-149.39244684 111.61051795 -149.51320157 109.30394591 -149.46875 106.7109375 C-149.48035156 106.03417969 -149.49195313 105.35742188 -149.50390625 104.66015625 C-149.48674815 101.76043758 -149.44981208 99.7190027 -147.7578125 97.3046875 C-142.59559912 93.9116834 -135.84187375 94.98684911 -129.89746094 94.97070312 C-127.73333215 94.96100286 -125.57015581 94.92996983 -123.40625 94.8984375 C-122.02344312 94.89190623 -120.64062947 94.88665624 -119.2578125 94.8828125 C-118.00436035 94.8734668 -116.7509082 94.86412109 -115.45947266 94.85449219 C-111.84118875 95.23768488 -109.97107348 96.02786547 -107.09375 98.2109375 C-105.74821547 100.90200657 -105.88780886 103.08259172 -105.84375 106.0859375 C-105.81796875 107.13523437 -105.7921875 108.18453125 -105.765625 109.265625 C-106.09375 112.2109375 -106.09375 112.2109375 -107.59594727 114.09716797 C-109.39198103 116.63181513 -109.44575706 117.90657032 -109.38671875 120.9765625 C-109.37705078 121.86601562 -109.36738281 122.75546875 -109.35742188 123.671875 C-109.33228516 124.59226563 -109.30714844 125.51265625 -109.28125 126.4609375 C-109.26771484 127.39679688 -109.25417969 128.33265625 -109.24023438 129.296875 C-109.20494954 131.60215077 -109.15565281 133.9062481 -109.09375 136.2109375 C-107.70349609 135.02757812 -107.70349609 135.02757812 -106.28515625 133.8203125 C-100.73504377 129.09615557 -95.20432628 126.98298162 -87.94921875 127.38671875 C-79.76529104 127.92027926 -79.76529104 127.92027926 -72.41357422 124.95507812 C-69.00444464 121.17368052 -67.25812421 117.13119135 -66.09375 112.2109375 C-66.54401373 109.0549981 -67.33132343 107.03297811 -68.9375 104.296875 C-70.09375 102.2109375 -70.09375 102.2109375 -70.09375 98.2109375 C-70.67382812 98.18515625 -71.25390625 98.159375 -71.8515625 98.1328125 C-78.90998354 97.62031988 -83.19842193 95.54030897 -87.90625 90.1484375 C-91.99694474 84.65521885 -91.73565731 78.83542095 -91.09375 72.2109375 C-89.78295235 68.5953724 -87.82032221 65.93750971 -85.09375 63.2109375 C-84.77146836 60.78867618 -84.77146836 60.78867618 -84.78515625 57.96875 C-84.76001953 56.90140625 -84.73488281 55.8340625 -84.70898438 54.734375 C-84.67443502 52.50786125 -84.64306697 50.28129534 -84.61523438 48.0546875 C-84.18816931 30.59710104 -78.64935049 17.42254894 -66.09375 5.2109375 C-47.83467949 -11.30917391 -20.63996877 -12.33911176 0 0 Z " fill="#040404" transform="translate(177.09375,25.7890625)"/>
<path d="M0 0 C1.10832184 -0.0099852 2.21664368 -0.0199704 3.35855103 -0.03025818 C5.70025912 -0.04542796 8.04203188 -0.05248433 10.38378906 -0.05200195 C13.95747247 -0.05855872 17.528371 -0.11304431 21.1015625 -0.16992188 C23.38019886 -0.17872538 25.65884838 -0.18467863 27.9375 -0.1875 C29.00124847 -0.20905655 30.06499695 -0.2306131 31.16098022 -0.25282288 C37.34334179 -0.19600984 40.88196457 0.5656223 45.38272095 4.92274475 C47.53733324 7.71784966 47.73899368 10.3868422 47.81030273 13.78491211 C47.82959335 14.64688705 47.84888397 15.508862 47.86875916 16.3969574 C47.92695224 20.36363195 47.97585438 24.33012975 48.0065918 28.29711914 C48.02807429 30.37736715 48.06205964 32.45752719 48.10913086 34.53735352 C48.65260205 58.79628291 48.65260205 58.79628291 39.34155273 68.97436523 C32.86775971 75.37791278 26.26772777 77.87224656 17.22851562 77.9140625 C15.95911133 77.89666016 15.95911133 77.89666016 14.6640625 77.87890625 C13.82166016 77.89050781 12.97925781 77.90210938 12.11132812 77.9140625 C3.39407108 77.87379803 -4.99795838 75.7053274 -11.3984375 69.50390625 C-17.92834011 61.36409678 -19.70897693 54.30478406 -19.69921875 44.03125 C-19.70350388 43.03057999 -19.707789 42.02990997 -19.71220398 40.99891663 C-19.71793048 38.89015457 -19.71845996 36.78137277 -19.71411133 34.67260742 C-19.71094468 31.44871427 -19.73445505 28.22573342 -19.75976562 25.00195312 C-19.76203813 22.9492199 -19.76274234 20.89648422 -19.76171875 18.84375 C-19.7709285 17.88218491 -19.78013824 16.92061981 -19.78962708 15.92991638 C-19.7300053 7.30355683 -19.7300053 7.30355683 -16.3984375 3.50390625 C-11.75415306 -0.68398683 -5.90680905 0.01846766 0 0 Z " fill="#FCAE9C" transform="translate(133.3984375,68.49609375)"/>
<path d="M0 0 C6.27 0 12.54 0 19 0 C19.00386719 2.62388672 19.00386719 2.62388672 19.0078125 5.30078125 C19.04535892 7.63804568 19.08450683 9.97528477 19.125 12.3125 C19.12242188 13.46041016 19.11984375 14.60832031 19.1171875 15.79101562 C19.31278126 24.42159011 21.42507196 29.78384294 26 37 C27.09828562 38.95215984 28.1852871 40.91070515 29.26171875 42.875 C30.40310183 44.91697084 31.54504454 46.95862895 32.6875 49 C33.28892822 50.07926758 33.89035645 51.15853516 34.51000977 52.27050781 C37.40394741 57.44635827 40.33003006 62.59251307 43.390625 67.671875 C43.90665283 68.53425781 44.42268066 69.39664063 44.9543457 70.28515625 C45.91949486 71.88913087 46.89663249 73.4859726 47.88745117 75.07421875 C51.02181986 80.29796977 51.02181986 80.29796977 50.91015625 83.890625 C50 86 50 86 48 88 C46.10926819 88.2515564 46.10926819 88.2515564 43.78149414 88.25537109 C42.91041519 88.26233002 42.03933624 88.26928894 41.14186096 88.27645874 C40.19914841 88.27546173 39.25643585 88.27446472 38.28515625 88.2734375 C36.30012455 88.29372447 34.31509854 88.31457522 32.33007812 88.3359375 C29.19176432 88.35856661 26.05367491 88.37501643 22.9152832 88.38085938 C19.89232541 88.39035583 16.87038689 88.42409853 13.84765625 88.4609375 C12.90696793 88.45589203 11.9662796 88.45084656 10.99708557 88.44564819 C5.96877199 88.3262253 5.96877199 88.3262253 2.02587891 91.00927734 C1.68733887 91.66621582 1.34879883 92.3231543 1 93 C-1.26171875 93.390625 -1.26171875 93.390625 -3.6875 93.25 C-4.49574219 93.21390625 -5.30398437 93.1778125 -6.13671875 93.140625 C-6.75160156 93.09421875 -7.36648437 93.0478125 -8 93 C-8.33 91.68 -8.66 90.36 -9 89 C-9.62567871 88.98018066 -10.25135742 88.96036133 -10.89599609 88.93994141 C-13.72276519 88.84485774 -16.54877815 88.73511254 -19.375 88.625 C-20.35984375 88.5940625 -21.3446875 88.563125 -22.359375 88.53125 C-23.30039062 88.49257812 -24.24140625 88.45390625 -25.2109375 88.4140625 C-26.08024902 88.3826416 -26.94956055 88.3512207 -27.84521484 88.31884766 C-30 88 -30 88 -32 86 C-32.46519644 81.44107491 -31.69522545 78.72054511 -29.4296875 74.7890625 C-28.58917847 73.30962158 -28.58917847 73.30962158 -27.73168945 71.80029297 C-27.11898193 70.75244629 -26.50627441 69.70459961 -25.875 68.625 C-25.25133545 67.53461426 -24.6276709 66.44422852 -23.98510742 65.32080078 C-22.00598126 61.87102059 -20.00794562 58.43304492 -18 55 C-17.34370605 53.87787109 -16.68741211 52.75574219 -16.01123047 51.59960938 C-15.36686035 50.49939453 -14.72249023 49.39917969 -14.05859375 48.265625 C-13.43033691 47.19231934 -12.80208008 46.11901367 -12.15478516 45.01318359 C-10.95296397 42.96597851 -9.74584607 40.92187098 -8.53271484 38.88134766 C-2.9670634 29.45766933 -0.54059012 22.54341001 -0.3125 11.5625 C-0.27833984 10.44939453 -0.24417969 9.33628906 -0.20898438 8.18945312 C-0.12698298 5.45997823 -0.06180344 2.73000692 0 0 Z " fill="#B5A8A8" transform="translate(40,142)"/>
<path d="M0 0 C2.41122562 1.55998991 4.75231991 3.17776202 7.07421875 4.8671875 C9.09466028 6.28184643 9.09466028 6.28184643 12.25 5.9375 C15 6 15 6 16.4765625 7.53515625 C17.74389559 9.31579464 18.90870446 11.10713339 20 13 C19.505 13.495 19.505 13.495 19 14 C19.31307801 18.59181075 20.49482649 22.36805915 22.0625 26.6875 C24.96204985 35.6269064 24.33359617 44.70563997 24 54 C22.02 54 20.04 54 18 54 C17.98582031 53.3709375 17.97164063 52.741875 17.95703125 52.09375 C17.51233219 44.11320473 15.29641925 39.13159829 9.5 33.625 C5.89059669 31.94920561 3.42259711 31.68247223 -0.5 31.3125 C-6.37709488 30.60724861 -6.37709488 30.60724861 -9.17578125 27.87890625 C-10.64192826 25.63594627 -11.89990465 23.44130749 -13 21 C-14.65 21.33 -16.3 21.66 -18 22 C-17.47731534 24.76276177 -16.89130413 27.3260876 -16 30 C-18.625 30.5625 -18.625 30.5625 -22 30 C-24.39920247 27.2279485 -26.21328523 24.19327746 -28 21 C-29.65 21.33 -31.3 21.66 -33 22 C-32.37240135 24.92879371 -31.41377341 27.36095629 -30 30 C-32.5625 30.5625 -32.5625 30.5625 -36 30 C-38.01130869 27.78107235 -39.64457246 25.47022781 -41.2890625 22.96875 C-41.85367188 22.3190625 -42.41828125 21.669375 -43 21 C-44.32 21 -45.64 21 -47 21 C-46.51515724 25.64586892 -46.51515724 25.64586892 -45 30 C-45.65226562 30.20753906 -46.30453125 30.41507813 -46.9765625 30.62890625 C-53.30756196 32.86063025 -57.41273619 35.23520413 -61 41 C-62.85234966 45.23394207 -63.45097176 49.42476465 -64 54 C-65.65 54 -67.3 54 -69 54 C-69.83607327 29.69920873 -69.83607327 29.69920873 -65 21 C-64.50242187 20.071875 -64.00484375 19.14375 -63.4921875 18.1875 C-50.58223763 -3.90953047 -22.79605102 -12.46055331 0 0 Z " fill="#863E2D" transform="translate(170,31)"/>
<path d="M0 0 C1.18400391 -0.00644531 2.36800781 -0.01289063 3.58789062 -0.01953125 C12.24320434 0.08835368 12.24320434 0.08835368 15.06103516 2.26635742 C18.60289907 6.7183412 21.31015001 11.68984597 24.13012695 16.61499023 C25.24953895 18.56169821 26.39073225 20.49449203 27.53320312 22.42773438 C28.24876826 23.66848034 28.96300743 24.90999216 29.67578125 26.15234375 C30.32587158 27.27374756 30.97596191 28.39515137 31.64575195 29.55053711 C33.05620587 32.90752939 33.19599293 34.25357343 31.9375 37.625 C29.26556098 40.29693902 27.96723245 39.87816128 24.234375 39.88378906 C23.03973633 39.89009338 21.84509766 39.89639771 20.61425781 39.90289307 C19.31842773 39.8988446 18.02259766 39.89479614 16.6875 39.890625 C15.34993418 39.89197178 14.01236883 39.89391243 12.67480469 39.89642334 C9.87039534 39.899374 7.06611331 39.89507894 4.26171875 39.88574219 C0.66345078 39.87434754 -2.93451886 39.88090734 -6.53277588 39.89288712 C-9.29510758 39.90010736 -12.05736833 39.89781706 -14.81970215 39.89263153 C-16.79288933 39.89064475 -18.76607926 39.89672842 -20.73925781 39.90289307 C-21.93389648 39.89658875 -23.12853516 39.89028442 -24.359375 39.88378906 C-25.41479492 39.88219788 -26.47021484 39.88060669 -27.55761719 39.87896729 C-30.0625 39.625 -30.0625 39.625 -32.0625 37.625 C-32.59635818 32.80107289 -31.54084006 29.95007408 -29.17578125 25.78125 C-28.56669922 24.69972656 -27.95761719 23.61820313 -27.33007812 22.50390625 C-26.68490234 21.38886719 -26.03972656 20.27382812 -25.375 19.125 C-24.74916016 18.00996094 -24.12332031 16.89492187 -23.47851562 15.74609375 C-21.72744601 12.66934526 -19.90818416 9.64560196 -18.0625 6.625 C-17.69503662 5.9335791 -17.32757324 5.2421582 -16.94897461 4.52978516 C-13.22117877 -1.44780237 -6.174296 -0.16860448 0 0 Z " fill="#030201" transform="translate(49.0625,185.375)"/>
<path d="M0 0 C2.08304538 -0.05418326 4.16649768 -0.09287551 6.25 -0.125 C7.99023438 -0.15980469 7.99023438 -0.15980469 9.765625 -0.1953125 C12.908009 -0.00555501 14.31814256 0.52650798 17 2 C17.01458252 3.24088379 17.02916504 4.48176758 17.04418945 5.76025391 C17.10230723 10.37870621 17.17953947 14.99667784 17.26245117 19.61474609 C17.29563713 21.61076029 17.32368868 23.60686689 17.34643555 25.60302734 C17.38009793 28.4779384 17.43241977 31.35200743 17.48828125 34.2265625 C17.49467117 35.11429352 17.5010611 36.00202454 17.50764465 36.91665649 C17.62730385 41.99713436 18.15869462 45.61196623 21 50 C24.08739745 52.29575708 26.21630433 53.05407608 30 54 C30 58.95 30 63.9 30 69 C14.49 69 -1.02 69 -17 69 C-15.56012461 64.68037382 -14.37150012 61.5931486 -12.171875 57.76953125 C-11.61886719 56.80080078 -11.06585938 55.83207031 -10.49609375 54.83398438 C-9.91988281 53.83689453 -9.34367188 52.83980469 -8.75 51.8125 C-7.0560508 48.85879778 -5.36464581 45.90380119 -3.68164062 42.94384766 C-2.54906194 40.96117725 -1.40157328 38.98695854 -0.24023438 37.02099609 C0.30826172 36.06918457 0.85675781 35.11737305 1.421875 34.13671875 C2.1658252 32.8696106 2.1658252 32.8696106 2.92480469 31.5769043 C4.20402454 28.51101749 4.31834347 26.29232654 4 23 C2.30576554 21.00786887 2.30576554 21.00786887 0 19.625 C-0.7425 19.12226563 -1.485 18.61953125 -2.25 18.1015625 C-2.8275 17.73804688 -3.405 17.37453125 -4 17 C-3.37738281 16.69449219 -2.75476563 16.38898438 -2.11328125 16.07421875 C0.89090824 14.54778053 0.89090824 14.54778053 3 12 C2.7549915 7.589847 1.68725236 4.04107356 0 0 Z " fill="#DCF3F9" transform="translate(197,161)"/>
<path d="M0 0 C1.26328125 0.01804688 2.5265625 0.03609375 3.828125 0.0546875 C4.79234375 0.07789063 5.7565625 0.10109375 6.75 0.125 C4.875 4.875 4.875 4.875 3.75 7.125 C3.5 10.125 3.5 10.125 3.75 13.125 C6.10953094 15.48453094 7.52895617 15.61641413 10.75 16.125 C8.74788429 18.19861984 6.96887841 19.99124097 4.5 21.5 C2.46116616 23.03848022 2.46116616 23.03848022 2.44873047 25.83349609 C2.80387406 29.7135981 3.93546877 32.01228748 5.8203125 35.4140625 C6.13902313 35.99860199 6.45773376 36.58314148 6.78610229 37.18539429 C7.80406546 39.04696751 8.83873686 40.89856253 9.875 42.75 C10.8825698 44.57537092 11.88652642 46.40268988 12.88983154 48.23040771 C13.54893954 49.43093309 14.20945052 50.63068932 14.87139893 51.82965088 C17.99957514 57.51726175 20.88635946 63.29958794 23.75 69.125 C18.14 69.125 12.53 69.125 6.75 69.125 C6.70359375 67.69671875 6.6571875 66.2684375 6.609375 64.796875 C5.95724999 58.39705509 3.28413698 53.80747449 0 48.375 C-0.57186035 47.39217041 -1.1437207 46.40934082 -1.73291016 45.39672852 C-4.76614045 40.2049996 -7.89047381 35.0715861 -11.0390625 29.94921875 C-11.64008789 28.96083008 -12.24111328 27.97244141 -12.86035156 26.95410156 C-14.01514966 25.06181758 -15.18584164 23.17911961 -16.37402344 21.30761719 C-20.22665816 15.01300476 -20.22665816 15.01300476 -20.33984375 10.70703125 C-19.097601 7.76394 -18.06716252 6.65087599 -15.4375 4.875 C-14.75042969 4.39546875 -14.06335938 3.9159375 -13.35546875 3.421875 C-12.31326172 2.77992188 -12.31326172 2.77992188 -11.25 2.125 C-10.65316406 1.74085938 -10.05632812 1.35671875 -9.44140625 0.9609375 C-6.26075676 -0.25235838 -3.38680591 -0.06271863 0 0 Z " fill="#DAF1F8" transform="translate(91.25,160.875)"/>
<path d="M0 0 C-0.27714844 0.54527344 -0.55429688 1.09054688 -0.83984375 1.65234375 C-3.51288916 7.21722476 -4.60894933 11.84095196 -5 18 C-4.38125 18.12375 -3.7625 18.2475 -3.125 18.375 C-1 19 -1 19 1 21 C1.30078125 23.27734375 1.30078125 23.27734375 1.3125 25.9375 C1.32925781 26.81277344 1.34601563 27.68804687 1.36328125 28.58984375 C1 31 1 31 -0.33203125 32.81640625 C-2 34 -2 34 -5 34 C-4.5260507 49.00294669 -3.93973647 61.91581536 7.17578125 73.2109375 C10.93357743 75.59139483 13.94866785 75.66420527 18.3125 75.75 C19.05306641 75.77964844 19.79363281 75.80929688 20.55664062 75.83984375 C22.37052046 75.91005845 24.18526278 75.95735048 26 76 C26 76.33 26 76.66 26 77 C22.85434954 77.08845016 19.70902625 77.14086835 16.5625 77.1875 C15.68400391 77.21263672 14.80550781 77.23777344 13.90039062 77.26367188 C4.97419584 77.36248584 -3.42614034 75.36940948 -10 69 C-16.52990261 60.86019053 -18.31053943 53.80087781 -18.30078125 43.52734375 C-18.30506638 42.52667374 -18.3093515 41.52600372 -18.31376648 40.49501038 C-18.31949298 38.38624832 -18.32002246 36.27746652 -18.31567383 34.16870117 C-18.31250718 30.94480802 -18.33601755 27.72182717 -18.36132812 24.49804688 C-18.36360063 22.44531365 -18.36430484 20.39257797 -18.36328125 18.33984375 C-18.372491 17.37827866 -18.38170074 16.41671356 -18.39118958 15.42601013 C-18.35694329 10.47109571 -18.26728364 7.00129264 -15 3 C-10.52660249 -0.9311675 -5.62282772 -0.29478903 0 0 Z " fill="#FBA48D" transform="translate(132,69)"/>
<path d="M0 0 C2.38375306 2.38375306 2.95061721 4.02558438 3.12025452 7.37284851 C3.1169236 8.77516472 3.1169236 8.77516472 3.11352539 10.20581055 C3.11344986 11.26668381 3.11337433 12.32755707 3.11329651 13.420578 C3.10813522 14.56440445 3.10297394 15.7082309 3.09765625 16.88671875 C3.0962413 18.05886429 3.09482635 19.23100983 3.09336853 20.43867493 C3.08776388 24.18830907 3.07521056 27.93788385 3.0625 31.6875 C3.0574856 34.22721268 3.05292259 36.7669263 3.04882812 39.30664062 C3.03779294 45.53778335 3.02052515 51.7688816 3 58 C-2.94 58 -8.88 58 -15 58 C-15.37324912 51.50852793 -15.64400041 45.02338992 -15.82397461 38.52368164 C-15.89902571 36.31814761 -16.00111832 34.11335062 -16.1315918 31.91040039 C-17.16376002 14.02353222 -17.16376002 14.02353222 -13.47930908 8.87506104 C-9.49898813 4.98701496 -4.99160123 2.39094135 0 0 Z " fill="#05E19A" transform="translate(141,173)"/>
<path d="M0 0 C1.73152958 1.07955259 3.46011684 2.16382512 5.1875 3.25 C6.15042969 3.85328125 7.11335937 4.4565625 8.10546875 5.078125 C9.53826172 6.02945313 9.53826172 6.02945313 11 7 C11.87462891 7.48404297 12.74925781 7.96808594 13.65039062 8.46679688 C17.30408564 12.40598426 16.62395802 16.27162238 16.48828125 21.453125 C16.48120651 22.46848328 16.47413177 23.48384155 16.46684265 24.52996826 C16.43886958 27.77073053 16.37612355 31.0097606 16.3125 34.25 C16.28742099 36.4478917 16.26460714 38.64581051 16.24414062 40.84375 C16.18903293 46.22983337 16.10273817 51.61462308 16 57 C10.06 57 4.12 57 -2 57 C-2.0494061 49.5252377 -2.08572271 42.05057028 -2.10986328 34.57568359 C-2.11992616 32.03237248 -2.13357774 29.48907295 -2.15087891 26.94580078 C-2.17511427 23.29196312 -2.18648027 19.63827832 -2.1953125 15.984375 C-2.20563507 14.84570984 -2.21595764 13.70704468 -2.22659302 12.53387451 C-2.22674408 11.47307678 -2.22689514 10.41227905 -2.22705078 9.31933594 C-2.231492 8.38667908 -2.23593323 7.45402222 -2.24050903 6.49310303 C-1.98815147 3.87717876 -1.32780042 2.24603507 0 0 Z " fill="#04DF99" transform="translate(153,173)"/>
<path d="M0 0 C6.67792004 -1.45113755 13.52817484 -2.79065871 20 0 C25.11933663 5.15918002 34 17.396419 34 25 C18.49 25 2.98 25 -13 25 C-11.58954902 21.47387254 -10.21951805 18.41889881 -8.3984375 15.13671875 C-7.66367187 13.80737305 -7.66367187 13.80737305 -6.9140625 12.45117188 C-6.40617187 11.53916016 -5.89828125 10.62714844 -5.375 9.6875 C-4.859375 8.75615234 -4.34375 7.82480469 -3.8125 6.86523438 C-2.54426483 4.57536531 -1.27335838 2.28702285 0 0 Z " fill="#FA9600" transform="translate(39,193)"/>
<path d="M0 0 C6.27 0 12.54 0 19 0 C19 7.92 19 15.84 19 24 C18.67 24 18.34 24 18 24 C18 16.41 18 8.82 18 1 C15.03 1 12.06 1 9 1 C9 3.64 9 6.28 9 9 C9.9590625 9.37125 9.9590625 9.37125 10.9375 9.75 C13 11 13 11 13.9375 12.9375 C14 15 14 15 12.6875 16.75 C11 18 11 18 9 18 C9.020625 18.94875 9.04125 19.8975 9.0625 20.875 C9 24 9 24 8 26 C8.61875 26.12375 9.2375 26.2475 9.875 26.375 C12 27 12 27 14 29 C13.46428571 32.53571429 13.46428571 32.53571429 12 34 C6.47058824 34.23529412 6.47058824 34.23529412 4 33 C2.35 35.97 0.7 38.94 -1 42 C9.89 42.495 9.89 42.495 21 43 C21 43.33 21 43.66 21 44 C20.27409668 43.98316162 19.54819336 43.96632324 18.80029297 43.94897461 C15.49068153 43.89850872 12.18490406 43.91736231 8.875 43.9375 C7.16183594 43.89592773 7.16183594 43.89592773 5.4140625 43.85351562 C-0.74345855 43.82195664 -0.74345855 43.82195664 -5.92163086 46.70556641 C-7.51174757 49.06061871 -8.75388036 51.44716567 -10 54 C-11.04664901 55.72604987 -12.10553758 57.44472998 -13.17578125 59.15625 C-14.22477407 60.93548814 -15.27032857 62.71675773 -16.3125 64.5 C-16.84939453 65.38558594 -17.38628906 66.27117187 -17.93945312 67.18359375 C-21.49771233 73.2950049 -24.07532217 79.09818607 -22.50512695 86.25585938 C-22.33843506 86.83142578 -22.17174316 87.40699219 -22 88 C-28.0546875 88.1953125 -28.0546875 88.1953125 -30 88 C-32 86 -32 86 -32.28564453 83.20068359 C-31.97325541 79.70032344 -31.17403483 77.81610125 -29.4296875 74.7890625 C-28.58917847 73.30962158 -28.58917847 73.30962158 -27.73168945 71.80029297 C-27.11898193 70.75244629 -26.50627441 69.70459961 -25.875 68.625 C-25.25133545 67.53461426 -24.6276709 66.44422852 -23.98510742 65.32080078 C-22.00598126 61.87102059 -20.00794562 58.43304492 -18 55 C-17.34370605 53.87787109 -16.68741211 52.75574219 -16.01123047 51.59960938 C-15.36686035 50.49939453 -14.72249023 49.39917969 -14.05859375 48.265625 C-13.43033691 47.19231934 -12.80208008 46.11901367 -12.15478516 45.01318359 C-10.95296397 42.96597851 -9.74584607 40.92187098 -8.53271484 38.88134766 C-2.9670634 29.45766933 -0.54059012 22.54341001 -0.3125 11.5625 C-0.27833984 10.44939453 -0.24417969 9.33628906 -0.20898438 8.18945312 C-0.12698298 5.45997823 -0.06180344 2.73000692 0 0 Z " fill="#958E8E" transform="translate(40,142)"/>
<path d="M0 0 C-2.33309984 1.88153213 -4.65872152 3.75376917 -7.08984375 5.5078125 C-13.91495236 10.524559 -19.38335098 16.26002165 -23 24 C-22.34 24.33 -21.68 24.66 -21 25 C-21.99 25.33 -22.98 25.66 -24 26 C-23.51515724 30.64586892 -23.51515724 30.64586892 -22 35 C-22.65226562 35.20753906 -23.30453125 35.41507813 -23.9765625 35.62890625 C-30.30756196 37.86063025 -34.41273619 40.23520413 -38 46 C-39.85234966 50.23394207 -40.45097176 54.42476465 -41 59 C-42.65 59 -44.3 59 -46 59 C-46.83607327 34.69920873 -46.83607327 34.69920873 -42 26 C-41.50242187 25.071875 -41.00484375 24.14375 -40.4921875 23.1875 C-34.519944 12.96524135 -26.83085363 6.60451093 -16 2 C-15.01 1.566875 -14.02 1.13375 -13 0.6875 C-8.66344946 -0.30629283 -4.42837615 -0.15753117 0 0 Z " fill="#6B3225" transform="translate(147,26)"/>
<path d="M0 0 C1.24085465 2.48170929 1.08443029 4.04408293 1.02172852 6.81689453 C0.99158409 8.31822433 0.99158409 8.31822433 0.96083069 9.84988403 C0.92027809 11.47493362 0.92027809 11.47493362 0.87890625 13.1328125 C0.85529526 14.23978485 0.83168427 15.3467572 0.80735779 16.48727417 C0.73060168 20.03330939 0.64662866 23.57913276 0.5625 27.125 C0.50929129 29.52472911 0.45655082 31.92446866 0.40429688 34.32421875 C0.2749704 40.21627777 0.1397136 46.10817863 0 52 C2.97 52 5.94 52 9 52 C9 34.84 9 17.68 9 0 C9.33 0 9.66 0 10 0 C10 17.49 10 34.98 10 53 C4.06 53 -1.88 53 -8 53 C-8.19809107 46.41651932 -8.3430856 39.8347802 -8.43945312 33.24902344 C-8.47963046 31.01010924 -8.53418502 28.77140425 -8.60351562 26.53320312 C-8.70082115 23.31067315 -8.74598331 20.09092076 -8.78125 16.8671875 C-8.82254028 15.87008759 -8.86383057 14.87298767 -8.90637207 13.84567261 C-8.91077242 6.99644904 -8.91077242 6.99644904 -6.16577148 3.9932251 C-4.1706614 2.48655518 -2.19785311 1.18720047 0 0 Z " fill="#0CC688" transform="translate(134,178)"/>
<path d="M0 0 C0 13.53 0 27.06 0 41 C-4.14584838 36.85415162 -6.53330654 32.01307161 -9.31762695 26.88500977 C-10.31188676 25.0636234 -11.32834245 23.25582498 -12.34570312 21.44726562 C-12.97025391 20.30064453 -13.59480469 19.15402344 -14.23828125 17.97265625 C-14.81618408 16.92343994 -15.39408691 15.87422363 -15.98950195 14.79321289 C-17 12 -17 12 -16.34228516 9.76049805 C-14.31973742 7.10778947 -11.84263383 5.56972396 -9.0625 3.75 C-8.00160156 3.04359375 -6.94070312 2.3371875 -5.84765625 1.609375 C-3 0 -3 0 0 0 Z " fill="#DAF0F7" transform="translate(118,177)"/>
<path d="M0 0 C3.63 0 7.26 0 11 0 C11.33 2.64 11.66 5.28 12 8 C13.32 8.33 14.64 8.66 16 9 C16.22887352 12.03257416 16.35720339 14.97459555 16 18 C14.125 19.75 14.125 19.75 12 21 C11.31867549 22.66072849 10.65257873 24.327767 10 26 C8.70644173 27.37195574 7.37701298 28.71182656 6 30 C5.67 30.66 5.34 31.32 5 32 C3.35 32 1.7 32 0 32 C0 21.44 0 10.88 0 0 Z " fill="#C6ECFB" transform="translate(221,131)"/>
<path d="M0 0 C4.33826511 1.08456628 7.1908326 3.00850405 10.75 5.5625 C11.35199219 5.98724609 11.95398438 6.41199219 12.57421875 6.84960938 C14.05329714 7.89435522 15.52717259 8.94646016 17 10 C15.44877098 15.44673112 12.90745835 20.0499456 10.125 24.9375 C9.69058594 25.71029297 9.25617188 26.48308594 8.80859375 27.27929688 C6.22698523 31.86494685 3.61480274 36.43321661 1 41 C0.67 41 0.34 41 0 41 C0 27.47 0 13.94 0 0 Z " fill="#FBFBFB" transform="translate(177,177)"/>
<path d="M0 0 C1.1859375 0.00257813 2.371875 0.00515625 3.59375 0.0078125 C4.7796875 0.00523437 5.965625 0.00265625 7.1875 0 C10.09375 0.1328125 10.09375 0.1328125 11.09375 1.1328125 C11.34473924 4.60490057 11.27897096 8.0902187 11.28125 11.5703125 C11.29349609 12.55064453 11.30574219 13.53097656 11.31835938 14.54101562 C11.32125977 15.94577148 11.32125977 15.94577148 11.32421875 17.37890625 C11.32832764 18.24185303 11.33243652 19.1047998 11.33666992 19.99389648 C11.09375 22.1328125 11.09375 22.1328125 9.09375 24.1328125 C6.30859375 24.36328125 6.30859375 24.36328125 3.03125 24.3203125 C1.40509766 24.31064453 1.40509766 24.31064453 -0.25390625 24.30078125 C-2.90625 24.1328125 -2.90625 24.1328125 -3.90625 23.1328125 C-4.0054157 21.51023706 -4.03704777 19.88341419 -4.0390625 18.2578125 C-4.04035156 17.27296875 -4.04164063 16.288125 -4.04296875 15.2734375 C-4.03910156 14.23703125 -4.03523437 13.200625 -4.03125 12.1328125 C-4.03705078 10.57820312 -4.03705078 10.57820312 -4.04296875 8.9921875 C-4.04167969 8.00734375 -4.04039062 7.0225 -4.0390625 6.0078125 C-4.03793457 5.09773437 -4.03680664 4.18765625 -4.03564453 3.25 C-3.83301422 -0.0654906 -3.37715638 0.15433242 0 0 Z " fill="#F6AA98" transform="translate(236.90625,162.8671875)"/>
<path d="M0 0 C6.6 0 13.2 0 20 0 C20 0.33 20 0.66 20 1 C16.04 1 12.08 1 8 1 C7.34 2.65 6.68 4.3 6 6 C5.2319582 7.48908403 4.43711656 8.96462562 3.6171875 10.42578125 C3.21612793 11.14419189 2.81506836 11.86260254 2.40185547 12.6027832 C1.64606201 13.94409302 1.64606201 13.94409302 0.875 15.3125 C-0.73375 18.179375 -2.3425 21.04625 -4 24 C7.88 24 19.76 24 32 24 C32.33 23.34 32.66 22.68 33 22 C33.495 23.485 33.495 23.485 34 25 C18.49 25 2.98 25 -13 25 C-11.58954902 21.47387254 -10.21951805 18.41889881 -8.3984375 15.13671875 C-7.66367187 13.80737305 -7.66367187 13.80737305 -6.9140625 12.45117188 C-6.40617187 11.53916016 -5.89828125 10.62714844 -5.375 9.6875 C-4.859375 8.75615234 -4.34375 7.82480469 -3.8125 6.86523438 C-2.5442719 4.57537808 -1.27248479 2.28749357 0 0 Z " fill="#DB7800" transform="translate(39,193)"/>
<path d="M0 0 C1.65 0 3.3 0 5 0 C5.07347656 1.77117187 5.07347656 1.77117187 5.1484375 3.578125 C5.22348879 5.13543937 5.29903561 6.69272991 5.375 8.25 C5.4059375 9.02730469 5.436875 9.80460938 5.46875 10.60546875 C5.66717984 16.11459995 5.66717984 16.11459995 8 21 C8.99 21.66 9.98 22.32 11 23 C11.36328125 25.53125 11.36328125 25.53125 11.3125 28.5 C11.30863281 29.4796875 11.30476562 30.459375 11.30078125 31.46875 C11 34 11 34 9 36 C3.86962591 36.54578448 3.86962591 36.54578448 1.3269043 34.94995117 C-0.69703376 31.97567458 -0.36899436 28.95645823 -0.29296875 25.48828125 C-0.28872391 24.76005661 -0.28447906 24.03183197 -0.28010559 23.28153992 C-0.26332733 20.95814873 -0.22567855 18.6356285 -0.1875 16.3125 C-0.17245197 14.73634066 -0.15876377 13.16016771 -0.14648438 11.58398438 C-0.11342685 7.72232123 -0.06165194 3.86130822 0 0 Z " fill="#D11B74" transform="translate(221,171)"/>
<path d="M0 0 C0 7.59 0 15.18 0 23 C-7.96837945 21.86166008 -7.96837945 21.86166008 -12 17 C-13.76713963 13.46572073 -13.78419127 9.837395 -13 6 C-9.27868441 0.69766304 -6.51602762 0 0 0 Z " fill="#EE9C85" transform="translate(107,93)"/>
<path d="M0 0 C8 1 8 1 11 3.5625 C13.59445759 8.02172399 13.64610621 9.91191361 13 15 C11.55295167 18.61762082 10.391642 19.75834855 7.0625 21.8125 C4 23 4 23 0 23 C0 15.41 0 7.82 0 0 Z " fill="#F29E87" transform="translate(188,93)"/>
<path d="M0 0 C4.70588235 0.70588235 4.70588235 0.70588235 6 2 C5.62475037 9.25482619 3.98174841 14.17116176 -1.4375 19.3125 C-6.36358258 22.5565056 -10.05466932 23.4487042 -16 23 C-16.66 22.34 -17.32 21.68 -18 21 C-17.9296875 19.00390625 -17.9296875 19.00390625 -17 17 C-14.8203125 15.83984375 -14.8203125 15.83984375 -12.125 14.9375 C-8.68472373 13.76900966 -6.24710003 12.92534058 -4 10 C-3.0416035 7.7723492 -3.0416035 7.7723492 -2.375 5.375 C-1.08333333 1.08333333 -1.08333333 1.08333333 0 0 Z " fill="#0B0807" transform="translate(164,112)"/>
<path d="M0 0 C0.79921875 0.01804688 1.5984375 0.03609375 2.421875 0.0546875 C3.02515625 0.07789063 3.6284375 0.10109375 4.25 0.125 C3.5075 0.846875 2.765 1.56875 2 2.3125 C-5.54312445 10.0270591 -7.7676474 17.51559193 -8.75 28.125 C-17.44631651 16.7569236 -17.44631651 16.7569236 -18.125 10.875 C-14.89838441 4.42176881 -7.16308623 -0.21067901 0 0 Z " fill="#C2E8F6" transform="translate(88.75,160.875)"/>
<path d="M0 0 C0.73734375 0.12761719 1.4746875 0.25523438 2.234375 0.38671875 C3.28207018 3.66151454 3.37252674 5.05755334 2.01953125 8.28125 C1.45105469 9.24417969 0.88257813 10.20710938 0.296875 11.19921875 C-0.26902344 12.17503906 -0.83492187 13.15085937 -1.41796875 14.15625 C-2.08505859 15.26033203 -2.08505859 15.26033203 -2.765625 16.38671875 C-1.95996094 16.66515625 -1.15429688 16.94359375 -0.32421875 17.23046875 C0.52011719 17.61203125 1.36445313 17.99359375 2.234375 18.38671875 C3.171875 20.88671875 3.171875 20.88671875 3.234375 23.38671875 C2.574375 24.04671875 1.914375 24.70671875 1.234375 25.38671875 C-4.08662503 25.38671875 -7.83975915 21.5722228 -11.765625 18.38671875 C-11.18765469 13.87345058 -9.33968734 10.40635831 -7.015625 6.57421875 C-6.51289063 5.67799805 -6.51289063 5.67799805 -6 4.76367188 C-3.41348651 0.47730955 -3.41348651 0.47730955 0 0 Z " fill="#080605" transform="translate(147.765625,93.61328125)"/>
<path d="M0 0 C0 8.25 0 16.5 0 25 C-10.67857143 18.74014778 -10.67857143 18.74014778 -12.01953125 15.65234375 C-11.99340139 12.10390814 -10.87475902 9.89120077 -9.25 6.75 C-8.71890625 5.69296875 -8.1878125 4.6359375 -7.640625 3.546875 C-5.44201125 0.1337889 -3.97290519 0 0 0 Z " fill="#69EEBD" transform="translate(169,150)"/>
<path d="M0 0 C0.33 0 0.66 0 1 0 C1 8.25 1 16.5 1 25 C-3.95 25 -8.9 25 -14 25 C-12.54662168 21.36655419 -11.19122358 18.43833154 -9.21484375 15.13671875 C-8.68439453 14.25048828 -8.15394531 13.36425781 -7.60742188 12.45117188 C-6.78081055 11.0831543 -6.78081055 11.0831543 -5.9375 9.6875 C-5.38255859 8.75615234 -4.82761719 7.82480469 -4.25585938 6.86523438 C-3.72669922 5.98544922 -3.19753906 5.10566406 -2.65234375 4.19921875 C-2.16757568 3.39315186 -1.68280762 2.58708496 -1.18334961 1.7565918 C-0.79284424 1.1769165 -0.40233887 0.59724121 0 0 Z " fill="#F1FAFE" transform="translate(117,144)"/>
<path d="M0 0 C7 2 7 2 8.77734375 4.4609375 C9.16019531 5.42257813 9.54304687 6.38421875 9.9375 7.375 C10.33839844 8.33148438 10.73929688 9.28796875 11.15234375 10.2734375 C12 13 12 13 12 17 C9.62890625 19.140625 9.62890625 19.140625 6.5625 21.25 C5.55316406 21.95640625 4.54382813 22.6628125 3.50390625 23.390625 C1 25 1 25 0 25 C0 16.75 0 8.5 0 0 Z " fill="#69EFBD" transform="translate(126,150)"/>
<path d="M0 0 C3.04592129 3.04592129 4.75655004 4.94638168 6.796875 8.51171875 C7.28027344 9.35154297 7.76367188 10.19136719 8.26171875 11.05664062 C8.99841797 12.35891602 8.99841797 12.35891602 9.75 13.6875 C10.25660156 14.56728516 10.76320312 15.44707031 11.28515625 16.35351562 C15 22.8469824 15 22.8469824 15 24 C10.05 24 5.1 24 0 24 C0 16.08 0 8.16 0 0 Z " fill="#EEF7FB" transform="translate(177,145)"/>
<path d="M0 0 C3.63 0 7.26 0 11 0 C11 0.33 11 0.66 11 1 C9.02 1 7.04 1 5 1 C5.05329468 2.30203369 5.05329468 2.30203369 5.10766602 3.63037109 C5.23678234 6.84685482 5.36111144 10.06347744 5.48217773 13.28027344 C5.53559149 14.67325222 5.59092043 16.06615893 5.64819336 17.45898438 C5.73012069 19.45943602 5.80462098 21.4601875 5.87890625 23.4609375 C5.9260376 24.66540527 5.97316895 25.86987305 6.02172852 27.11083984 C6 30 6 30 5 32 C3.35 32 1.7 32 0 32 C0 21.44 0 10.88 0 0 Z " fill="#89CDE1" transform="translate(221,131)"/>
<path d="M0 0 C8.91 0 17.82 0 27 0 C27 1.98 27 3.96 27 6 C18.09 6 9.18 6 0 6 C0 4.02 0 2.04 0 0 Z " fill="#E1D3CE" transform="translate(36,129)"/>
<path d="M0 0 C0 7.92 0 15.84 0 24 C-2.35775588 20.85632549 -4.2889372 17.91272523 -6.1875 14.5 C-6.71730469 13.5615625 -7.24710937 12.623125 -7.79296875 11.65625 C-9 9 -9 9 -9 5 C-7.5390625 3.515625 -7.5390625 3.515625 -5.625 2.25 C-4.99851562 1.82203125 -4.37203125 1.3940625 -3.7265625 0.953125 C-2 0 -2 0 0 0 Z " fill="#FDFEFE" transform="translate(118,180)"/>
<path d="M0 0 C4.55555556 0.55555556 4.55555556 0.55555556 6 2 C6.12487758 3.80927281 6.17570846 5.62396107 6.1875 7.4375 C6.20167969 8.42621094 6.21585938 9.41492188 6.23046875 10.43359375 C6 13 6 13 4 15 C-0.55555556 14.44444444 -0.55555556 14.44444444 -2 13 C-2.12487758 11.19072719 -2.17570846 9.37603893 -2.1875 7.5625 C-2.20167969 6.57378906 -2.21585938 5.58507812 -2.23046875 4.56640625 C-2 2 -2 2 0 0 Z " fill="#160F0D" transform="translate(164,88)"/>
<path d="M0 0 C4.55555556 0.55555556 4.55555556 0.55555556 6 2 C6.203125 4.1796875 6.203125 4.1796875 6.25 6.875 C6.28867188 8.20144531 6.28867188 8.20144531 6.328125 9.5546875 C6 12 6 12 4.6171875 13.8359375 C3 15 3 15 0.875 14.75 C-1 14 -1 14 -2 13 C-2.12487758 11.19072719 -2.17570846 9.37603893 -2.1875 7.5625 C-2.20167969 6.57378906 -2.21585937 5.58507812 -2.23046875 4.56640625 C-2 2 -2 2 0 0 Z " fill="#130D0B" transform="translate(127,88)"/>
<path d="M0 0 C3.63 0 7.26 0 11 0 C10.23539233 3.82303833 9.52385218 6.38393238 7.9375 9.8125 C7.39416016 10.99779297 7.39416016 10.99779297 6.83984375 12.20703125 C6.56269531 12.79871094 6.28554687 13.39039063 6 14 C3.2079853 12.60399265 2.99837067 10.99583616 1.875 8.125 C1.34519531 6.79855469 1.34519531 6.79855469 0.8046875 5.4453125 C0 3 0 3 0 0 Z " fill="#DA8471" transform="translate(142,153)"/>
<path d="M0 0 C0.33 0 0.66 0 1 0 C1.76660601 6.79906519 -0.66836866 10.78253245 -4.25 16.4375 C-4.74113281 17.26443359 -5.23226562 18.09136719 -5.73828125 18.94335938 C-8.53218692 23.45458572 -8.53218692 23.45458572 -10 25 C-11.32 25 -12.64 25 -14 25 C-12.68190878 21.49535013 -11.13705736 18.34784495 -9.21484375 15.13671875 C-8.68439453 14.25048828 -8.15394531 13.36425781 -7.60742188 12.45117188 C-6.78081055 11.0831543 -6.78081055 11.0831543 -5.9375 9.6875 C-5.38255859 8.75615234 -4.82761719 7.82480469 -4.25585938 6.86523438 C-3.72669922 5.98544922 -3.19753906 5.10566406 -2.65234375 4.19921875 C-2.16757568 3.39315186 -1.68280762 2.58708496 -1.18334961 1.7565918 C-0.79284424 1.1769165 -0.40233887 0.59724121 0 0 Z " fill="#D4EAF0" transform="translate(117,144)"/>
<path d="M0 0 C2.96875 1.6484375 2.96875 1.6484375 6 4 C6.65625 6.7265625 6.65625 6.7265625 6.5 9.625 C6.4690625 10.58664063 6.438125 11.54828125 6.40625 12.5390625 C6 15 6 15 4 17 C3.01 17 2.02 17 1 17 C-0.53266582 13.93466836 -0.10276471 10.73245728 -0.0625 7.375 C-0.05798828 6.66859375 -0.05347656 5.9621875 -0.04882812 5.234375 C-0.03703875 3.48954725 -0.01910324 1.744763 0 0 Z " fill="#FA3B94" transform="translate(226,190)"/>
<path d="M0 0 C8.91 0 17.82 0 27 0 C27 1.98 27 3.96 27 6 C26.67 6 26.34 6 26 6 C26 4.35 26 2.7 26 1 C20.39 1 14.78 1 9 1 C9 2.65 9 4.3 9 6 C6.03 6 3.06 6 0 6 C0 4.02 0 2.04 0 0 Z " fill="#AFA39F" transform="translate(36,129)"/>
<path d="M0 0 C3.0625 0.1875 3.0625 0.1875 5.0625 2.1875 C4.52678571 5.72321429 4.52678571 5.72321429 3.0625 7.1875 C0.0625 7.3125 0.0625 7.3125 -2.9375 7.1875 C-3.9375 6.1875 -3.9375 6.1875 -4.0625 3.6875 C-3.88162605 0.07002102 -3.66418153 0.23388393 0 0 Z " fill="#0B0600" transform="translate(48.9375,202.8125)"/>
<path d="M0 0 C3.0625 0.1875 3.0625 0.1875 5.0625 2.1875 C4.52678571 5.72321429 4.52678571 5.72321429 3.0625 7.1875 C0.0625 7.3125 0.0625 7.3125 -2.9375 7.1875 C-3.9375 6.1875 -3.9375 6.1875 -4.0625 3.6875 C-3.88162605 0.07002102 -3.66418153 0.23388393 0 0 Z " fill="#070707" transform="translate(48.9375,168.8125)"/>
<path d="M0 0 C3.0625 0.1875 3.0625 0.1875 5.0625 2.1875 C4.52678571 5.72321429 4.52678571 5.72321429 3.0625 7.1875 C0.0625 7.3125 0.0625 7.3125 -2.9375 7.1875 C-3.9375 6.1875 -3.9375 6.1875 -4.0625 3.6875 C-3.88162605 0.07002102 -3.66418153 0.23388393 0 0 Z " fill="#070707" transform="translate(48.9375,151.8125)"/>
<path d="M0 0 C2.31 0 4.62 0 7 0 C5.25 5.75 5.25 5.75 3 8 C0 2.25 0 2.25 0 0 Z " fill="#F9A38B" transform="translate(146,154)"/>
<path d="M0 0 C1.32 1.32 2.64 2.64 4 4 C3.34 4.66 2.68 5.32 2 6 C1.01 6 0.02 6 -1 6 C-1.042721 4.33388095 -1.04063832 2.66617115 -1 1 C-0.67 0.67 -0.34 0.34 0 0 Z " fill="#7C3929" transform="translate(121,56)"/>
</svg>
