<?xml version="1.0" encoding="UTF-8"?>
<svg version="1.1" xmlns="http://www.w3.org/2000/svg" width="474" height="474">
<path d="M0 0 C156.42 0 312.84 0 474 0 C474 156.42 474 312.84 474 474 C317.58 474 161.16 474 0 474 C0 317.58 0 161.16 0 0 Z " fill="#020202" transform="translate(0,0)"/>
<path d="M0 0 C1.32613564 -0.01045349 1.32613564 -0.01045349 2.67906189 -0.02111816 C5.52306915 -0.03845121 8.36687959 -0.04483975 11.2109375 -0.046875 C12.66389725 -0.04838562 12.66389725 -0.04838562 14.14620972 -0.04992676 C28.16935487 -0.04003994 41.80968027 0.35357179 55.5859375 3.203125 C56.84277344 3.4518335 56.84277344 3.4518335 58.125 3.70556641 C72.13654081 6.50734543 72.13654081 6.50734543 78.5859375 9.203125 C79.6996875 9.450625 80.8134375 9.698125 81.9609375 9.953125 C88.74718312 11.57564293 95.16151803 14.52744487 101.5859375 17.203125 C102.40320313 17.533125 103.22046875 17.863125 104.0625 18.203125 C119.98427778 24.88192317 134.3799562 35.24099185 147.5859375 46.203125 C148.22144531 46.71488281 148.85695313 47.22664063 149.51171875 47.75390625 C153.29995731 50.87017344 156.51916712 54.25424432 159.69140625 57.9921875 C162.53348196 61.30891915 165.51048395 64.50147906 168.47265625 67.7109375 C170.76638254 70.41592341 172.66362569 73.22372979 174.5859375 76.203125 C175.61460937 77.73066406 175.61460937 77.73066406 176.6640625 79.2890625 C182.37132145 87.93206975 187.22499874 96.80927499 191.5859375 106.203125 C191.87509033 106.81502686 192.16424316 107.42692871 192.4621582 108.05737305 C195.10225022 113.86306932 195.90798874 119.31154854 193.82421875 125.4453125 C192.85996736 127.46528577 191.7965396 129.3218409 190.5859375 131.203125 C190.0290625 132.09 189.4721875 132.976875 188.8984375 133.890625 C183.0829737 139.7060888 176.25295021 142.31869716 168.14532471 142.3429327 C167.03355771 142.34862394 165.92179071 142.35431518 164.77633381 142.36017889 C163.55495811 142.36135876 162.3335824 142.36253864 161.07519531 142.36375427 C159.7775912 142.36884209 158.47998709 142.37392991 157.14306164 142.37917191 C153.53816767 142.39307061 149.93328379 142.40065951 146.32836986 142.4071449 C143.23698887 142.41351903 140.14562442 142.42358872 137.05425376 142.43370556 C126.86895111 142.46702005 116.68363839 142.4885499 106.49829912 142.50690541 C103.84546284 142.51170153 101.19262696 142.51668472 98.53979111 142.52171063 C82.06048637 142.55268431 65.5811781 142.57936533 49.10185242 142.59612942 C45.2851867 142.60007882 41.46852105 142.60408183 37.65185547 142.6081543 C36.70325909 142.60916266 35.75466271 142.61017102 34.77732098 142.61120994 C19.41790192 142.62820915 4.0586442 142.66931035 -11.30069613 142.72017729 C-27.07585333 142.77199076 -42.85092764 142.80107663 -58.6261692 142.8083263 C-67.4809168 142.81298398 -76.33540025 142.82768703 -85.19006348 142.8680706 C-92.73287573 142.90242971 -100.27537616 142.91628623 -107.81826216 142.90364646 C-111.66398558 142.89783315 -115.50905002 142.90158834 -119.35467339 142.9318161 C-123.53271465 142.96438734 -127.70932448 142.94998104 -131.88745117 142.93138123 C-133.69274607 142.95657362 -133.69274607 142.95657362 -135.53451157 142.98227495 C-144.54302539 142.88235356 -152.97505437 140.72018097 -159.47987652 134.10098928 C-160.98791421 132.20493373 -162.22851528 130.31322211 -163.4140625 128.203125 C-163.8678125 127.419375 -164.3215625 126.635625 -164.7890625 125.828125 C-166.96996658 116.66832788 -164.53835693 109.92831442 -160.3515625 101.765625 C-159.84641113 100.75008545 -159.34125977 99.7345459 -158.82080078 98.68823242 C-155.40234436 91.9043062 -151.87154912 85.36730695 -147.4140625 79.203125 C-146.71796875 78.22601563 -146.021875 77.24890625 -145.3046875 76.2421875 C-140.39249618 69.51756697 -135.14693367 63.2396635 -129.4140625 57.203125 C-128.96691895 56.72875 -128.51977539 56.254375 -128.05908203 55.765625 C-116.81740161 43.91034101 -104.27789641 34.76183865 -90.4140625 26.203125 C-89.47433594 25.59726562 -88.53460938 24.99140625 -87.56640625 24.3671875 C-62.62083776 8.85953452 -29.27052741 0.15493914 0 0 Z " fill="#FCFCFC" transform="translate(222.4140625,284.796875)"/>
<path d="M0 0 C70.62 0 141.24 0 214 0 C214 137.28 214 274.56 214 416 C213.34 416 212.68 416 212 416 C211.82460693 415.30140869 211.64921387 414.60281738 211.46850586 413.88305664 C207.89915091 399.80335623 204.17791617 386.16995035 198 373 C197.70544922 372.3601416 197.41089844 371.7202832 197.10742188 371.06103516 C187.0117752 349.31614607 174.08884198 330.2020403 157.62890625 312.83984375 C155 310 155 310 152.9921875 307.41015625 C150.74885224 304.69616046 148.32632511 302.67732685 145.5625 300.5 C142.77556114 298.29835706 140.14721187 296.15115724 137.66796875 293.60546875 C119.49455832 275.85778975 93.47079799 263.03175373 70 254 C70 251 70 251 72.30859375 248.65234375 C73.34626228 247.74132313 74.38963286 246.83677138 75.4375 245.9375 C95.20931493 228.30930185 107.41866395 206.80248225 116 182 C116.31839844 181.12085938 116.63679688 180.24171875 116.96484375 179.3359375 C127.77651185 147.16988016 121.34753543 108.77037445 107.03027344 78.84228516 C104.19911877 73.14643133 100.88824526 68.03667213 97 63 C96.26523437 62.00226562 95.53046875 61.00453125 94.7734375 59.9765625 C88.42057222 51.37151086 82.20640194 43.86015101 74 37 C73.20980469 36.31035156 72.41960937 35.62070312 71.60546875 34.91015625 C51.08869706 17.40784277 26.401022 6.83877252 0 2 C0 1.34 0 0.68 0 0 Z " fill="#FDFDFD" transform="translate(260,0)"/>
<path d="M0 0 C70.62 0 141.24 0 214 0 C214 0.66 214 1.32 214 2 C212.94941406 2.18175781 211.89882812 2.36351562 210.81640625 2.55078125 C209.3983747 2.80433656 207.98040946 3.05826289 206.5625 3.3125 C205.87478516 3.43044922 205.18707031 3.54839844 204.47851562 3.66992188 C181.64014128 7.81269676 159.4124824 19.90127165 142 35 C141.17113281 35.70769531 140.34226563 36.41539063 139.48828125 37.14453125 C129.3808546 45.98272515 121.32935016 55.81089699 114 67 C113.46632813 67.79792969 112.93265625 68.59585938 112.3828125 69.41796875 C98.12118064 91.81258527 92.77462653 116.70571124 92.6875 142.9375 C92.67928223 144.7309082 92.67928223 144.7309082 92.67089844 146.56054688 C92.7348948 154.5358183 93.56110013 162.15943663 95 170 C95.12463623 170.70858154 95.24927246 171.41716309 95.37768555 172.1472168 C98.79395167 190.31431846 107.12082984 208.13665213 118 223 C118.41862305 223.57508301 118.83724609 224.15016602 119.26855469 224.74267578 C125.78618931 233.61081392 133.07126002 241.38935211 141 249 C142.33536533 250.33129823 143.66905845 251.66427917 145 253 C144.29617187 253.31638428 143.59234375 253.63276855 142.8671875 253.95874023 C125.40767011 261.83518211 108.51534466 269.66991209 93 281 C91.989375 281.66 90.97875 282.32 89.9375 283 C82.9637339 287.74809607 76.62482891 293.12563883 70.40625 298.81640625 C68.28640512 300.74009665 66.12544851 302.59250374 63.9375 304.4375 C59.19339997 308.56945809 55.13754391 313.27460832 51 318 C50.13955078 318.91845703 50.13955078 318.91845703 49.26171875 319.85546875 C25.90575157 345.10666954 8.80286245 381.55259296 2 415 C1.34 415 0.68 415 0 415 C0 278.05 0 141.1 0 0 Z " fill="#FDFDFD" transform="translate(0,0)"/>
<path d="M0 0 C0.95503418 0.20439697 1.91006836 0.40879395 2.89404297 0.61938477 C23.48711987 5.38340107 44.64952723 18.98979813 56.875 36.25 C57.30699707 36.85948486 57.73899414 37.46896973 58.18408203 38.09692383 C73.87052254 60.64290798 78.53632409 85.461836 73.97192383 112.5390625 C71.97065086 122.44500131 68.07361682 131.05791459 63 139.75 C62.39671875 140.7915625 61.7934375 141.833125 61.171875 142.90625 C55.78209884 151.74354063 48.75986702 161.01077678 40 166.75 C39.34 166.75 38.68 166.75 38 166.75 C38 167.41 38 168.07 38 168.75 C35.75658444 170.29102364 33.53326288 171.69292067 31.1875 173.0625 C30.50333008 173.46549316 29.81916016 173.86848633 29.11425781 174.28369141 C20.08223846 179.53088468 11.19833494 183.39540607 1 185.75 C0.22011719 185.95625 -0.55976563 186.1625 -1.36328125 186.375 C-25.92116081 192.01508717 -52.88936868 185.90777481 -74 172.75 C-77.13971808 170.5674489 -80.0833347 168.22106365 -83 165.75 C-83.825 165.0590625 -84.65 164.368125 -85.5 163.65625 C-94.48991315 155.87230081 -101.2520216 147.12920671 -107 136.75 C-107.43054688 136.0178125 -107.86109375 135.285625 -108.3046875 134.53125 C-115.54623814 121.39750598 -117.45156416 108.3231937 -117.5 93.5 C-117.50620361 92.25766602 -117.51240723 91.01533203 -117.51879883 89.73535156 C-117.36226742 78.19936869 -115.62890641 66.99996501 -110.6875 56.5 C-110.38626221 55.83742187 -110.08502441 55.17484375 -109.7746582 54.4921875 C-104.66354293 43.46837108 -104.66354293 43.46837108 -101 38.75 C-100.34 38.75 -99.68 38.75 -99 38.75 C-98.7525 38.02425781 -98.505 37.29851562 -98.25 36.55078125 C-91.50414361 21.43584677 -72.3042307 10.45776388 -57.48217773 4.74658203 C-38.34193222 -2.40021539 -19.98459624 -4.28104069 0 0 Z " fill="#FCFCFC" transform="translate(258,49.25)"/>
<path d="M0 0 C0.66 0 1.32 0 2 0 C2 11.88 2 23.76 2 36 C-9.88 36 -21.76 36 -34 36 C-34 35.34 -34 34.68 -34 34 C-33.31035156 33.79246094 -32.62070312 33.58492188 -31.91015625 33.37109375 C-19.76443335 29.38916265 -9.60881867 21.03368865 -3 10 C-1.74512173 6.71765049 -0.79895374 3.42008266 0 0 Z " fill="#F6F6F6" transform="translate(472,438)"/>
<path d="M0 0 C0.66 0 1.32 0 2 0 C2.25394531 0.73605469 2.50789062 1.47210938 2.76953125 2.23046875 C3.11371094 3.20628906 3.45789063 4.18210937 3.8125 5.1875 C4.14894531 6.15042969 4.48539062 7.11335938 4.83203125 8.10546875 C5.97895417 10.94784295 7.42181762 13.38175474 9 16 C9 16.66 9 17.32 9 18 C9.5775 18.226875 10.155 18.45375 10.75 18.6875 C13 20 13 20 14.625 22.25 C20.42048298 28.96055924 28.57347671 31.95611988 37 34 C37 34.66 37 35.32 37 36 C24.79 36 12.58 36 0 36 C0 24.12 0 12.24 0 0 Z " fill="#F8F8F8" transform="translate(0,438)"/>
<path d="M0 0 C0.433125 0.495 0.86625 0.99 1.3125 1.5 C2.99740483 3.33218192 2.99740483 3.33218192 6 3 C4.35 9.6 2.7 16.2 1 23 C0.34 23 -0.32 23 -1 23 C-1.02894547 19.54168414 -1.04678 16.08339928 -1.0625 12.625 C-1.07087891 11.64015625 -1.07925781 10.6553125 -1.08789062 9.640625 C-1.09111328 8.69960938 -1.09433594 7.75859375 -1.09765625 6.7890625 C-1.10289307 5.91975098 -1.10812988 5.05043945 -1.11352539 4.15478516 C-1 2 -1 2 0 0 Z " fill="#F5F5F5" transform="translate(1,392)"/>
<path d="M0 0 C0.33 1.32 0.66 2.64 1 4 C0.113125 4.721875 -0.77375 5.44375 -1.6875 6.1875 C-4.62913659 8.63538671 -7.33013044 11.25596739 -10 14 C-10.66 14.66 -11.32 15.32 -12 16 C-12.64767793 18.57061311 -12.64767793 18.57061311 -13 21 C-12.01 21.33 -11.02 21.66 -10 22 C-10 22.66 -10 23.32 -10 24 C-13.0831351 22.80100302 -16.06279492 21.52299523 -19 20 C-16.32721615 17.3222757 -13.64890551 14.65072321 -10.95703125 11.9921875 C-9.90883141 10.95314796 -8.86065455 9.91408523 -7.8125 8.875 C-7.27947266 8.35035156 -6.74644531 7.82570312 -6.19726562 7.28515625 C-3.8471966 4.94986754 -1.84450115 2.76675172 0 0 Z " fill="#E2E2E2" transform="translate(348,233)"/>
<path d="M0 0 C0.66 0.33 1.32 0.66 2 1 C1.01 2.32 0.02 3.64 -1 5 C-0.34 6.32 0.32 7.64 1 9 C0.01 9.33 -0.98 9.66 -2 10 C-2.33 9.01 -2.66 8.02 -3 7 C-7.28722236 9.14361118 -9.76433285 11.87380677 -12.66796875 15.57421875 C-13.32732422 16.27998047 -13.32732422 16.27998047 -14 17 C-14.66 17 -15.32 17 -16 17 C-16.33 17.66 -16.66 18.32 -17 19 C-17 16 -17 16 -14.55078125 13.22265625 C-13.4789831 12.16150951 -12.39917404 11.10840784 -11.3125 10.0625 C-10.51682617 9.27456055 -10.51682617 9.27456055 -9.70507812 8.47070312 C-6.61426032 5.44056396 -3.43437079 2.64427436 0 0 Z " fill="#E1E1E1" transform="translate(110,326)"/>
<path d="M0 0 C4.29 0 8.58 0 13 0 C13 1.32 13 2.64 13 4 C11.58297487 3.85769192 10.1663904 3.71099254 8.75 3.5625 C7.56664062 3.44068359 7.56664062 3.44068359 6.359375 3.31640625 C4.17635361 3.02365007 2.1226818 2.57935581 0 2 C0 1.34 0 0.68 0 0 Z " fill="#E2E2E2" transform="translate(260,0)"/>
<path d="M0 0 C-2.59733274 2.87561839 -4.21345482 4.24269096 -8 5 C-8.66 5.66 -9.32 6.32 -10 7 C-11.32 6.34 -12.64 5.68 -14 5 C-11.75043698 2.75043698 -9.93676737 1.99489035 -7 0.8125 C-6.113125 0.44769531 -5.22625 0.08289063 -4.3125 -0.29296875 C-2 -1 -2 -1 0 0 Z " fill="#E0E0E0" transform="translate(166,297)"/>
<path d="M0 0 C2.4375 0.8125 2.4375 0.8125 5 2 C5.33 2.99 5.66 3.98 6 5 C5.34 5.66 4.68 6.32 4 7 C2.02 5.68 0.04 4.36 -2 3 C-1.34 2.01 -0.68 1.02 0 0 Z " fill="#E7E7E7" transform="translate(386,280)"/>
<path d="M0 0 C1.32 0 2.64 0 4 0 C4 1.32 4 2.64 4 4 C4.99 4.33 5.98 4.66 7 5 C7 5.66 7 6.32 7 7 C3.9168649 5.80100302 0.93720508 4.52299523 -2 3 C-1.34 2.01 -0.68 1.02 0 0 Z " fill="#DBDBDB" transform="translate(331,250)"/>
<path d="M0 0 C2.0625 1.6875 2.0625 1.6875 4 4 C3.75 6.75 3.75 6.75 3 9 C1.35 7.35 -0.3 5.7 -2 4 C-1.34 2.68 -0.68 1.36 0 0 Z " fill="#0D0D0D" transform="translate(123,224)"/>
<path d="M0 0 C1.1446875 0.2784375 1.1446875 0.2784375 2.3125 0.5625 C5.08967375 1.22819173 5.08967375 1.22819173 8 0 C8.1875 2.375 8.1875 2.375 8 5 C7.01 5.66 6.02 6.32 5 7 C0 1.125 0 1.125 0 0 Z " fill="#181818" transform="translate(384,345)"/>
<path d="M0 0 C4.06815373 1.84916079 7.0094833 3.66442368 10 7 C8.35 7.33 6.7 7.66 5 8 C5 7.01 5 6.02 5 5 C4.360625 4.731875 3.72125 4.46375 3.0625 4.1875 C1 3 1 3 0 0 Z " fill="#E8E8E8" transform="translate(286,61)"/>
<path d="M0 0 C2.50298434 2.93828597 3.46930939 5.17902761 4 9 C3.566875 8.505 3.13375 8.01 2.6875 7.5 C1.00259517 5.66781808 1.00259517 5.66781808 -2 6 C-2.33 4.68 -2.66 3.36 -3 2 C-2.01 1.34 -1.02 0.68 0 0 Z " fill="#222222" transform="translate(460,378)"/>
<path d="M0 0 C0.66 0.33 1.32 0.66 2 1 C1.01 2.32 0.02 3.64 -1 5 C-0.34 6.32 0.32 7.64 1 9 C0.01 9.33 -0.98 9.66 -2 10 C-4 7 -4 7 -3.8125 5 C-2.90059285 2.75530549 -1.81466246 1.57796735 0 0 Z " fill="#EEEEEE" transform="translate(110,326)"/>
<path d="M0 0 C0.66 0 1.32 0 2 0 C2 0.99 2 1.98 2 3 C2.66 3 3.32 3 4 3 C4.33 3.99 4.66 4.98 5 6 C3.68 6.33 2.36 6.66 1 7 C0.01 5.35 -0.98 3.7 -2 2 C-1.34 2 -0.68 2 0 2 C0 1.34 0 0.68 0 0 Z " fill="#0C0C0C" transform="translate(315,81)"/>
<path d="M0 0 C0.99 0.33 1.98 0.66 3 1 C3.33 2.65 3.66 4.3 4 6 C3.01 6 2.02 6 1 6 C-0.6875 3.5 -0.6875 3.5 -2 1 C-1.34 0.67 -0.68 0.34 0 0 Z " fill="#E1E1E1" transform="translate(425,316)"/>
<path d="M0 0 C0.66 0 1.32 0 2 0 C2.66 2.97 3.32 5.94 4 9 C3.34 9 2.68 9 2 9 C2 8.34 2 7.68 2 7 C1.34 7 0.68 7 0 7 C0 4.69 0 2.38 0 0 Z " fill="#D0D0D0" transform="translate(0,438)"/>
<path d="M0 0 C0.66 0.99 1.32 1.98 2 3 C0.68 4.32 -0.64 5.64 -2 7 C-2.66 5.35 -3.32 3.7 -4 2 C-2.68 1.34 -1.36 0.68 0 0 Z " fill="#131313" transform="translate(358,216)"/>
<path d="M0 0 C2.31 0 4.62 0 7 0 C4.63707344 2.52588702 3.33537489 3.88820837 0 5 C-0.66 4.01 -1.32 3.02 -2 2 C-1.34 2 -0.68 2 0 2 C0 1.34 0 0.68 0 0 Z " fill="#E6E6E6" transform="translate(147,25)"/>
<path d="M0 0 C0.66 0.99 1.32 1.98 2 3 C-0.57784846 5.64752004 -2.91648098 7.94432065 -6 10 C-4.6302836 6.00499382 -2.74277578 3.19990508 0 0 Z " fill="#D8D8D8" transform="translate(165,78)"/>
<path d="M0 0 C0.66 0.33 1.32 0.66 2 1 C0.625 2.5 0.625 2.5 -1 4 C-1.66 4 -2.32 4 -3 4 C-3.33 4.66 -3.66 5.32 -4 6 C-5.32 5.34 -6.64 4.68 -8 4 C-6.71349294 3.30289269 -5.42059335 2.61757124 -4.125 1.9375 C-3.40570313 1.55464844 -2.68640625 1.17179687 -1.9453125 0.77734375 C-1.30335938 0.52082031 -0.66140625 0.26429687 0 0 Z " fill="#CFCFCF" transform="translate(198,55)"/>
<path d="M0 0 C0.99 0.33 1.98 0.66 3 1 C2.34 1 1.68 1 1 1 C1.33 1.99 1.66 2.98 2 4 C-0.375 5.5625 -0.375 5.5625 -3 7 C-3.66 6.67 -4.32 6.34 -5 6 C-3.35 4.02 -1.7 2.04 0 0 Z " fill="#1E1E1E" transform="translate(125,51)"/>
<path d="M0 0 C0.99 0.66 1.98 1.32 3 2 C2.67 3.32 2.34 4.64 2 6 C-0.475 5.01 -0.475 5.01 -3 4 C-2.01 2.68 -1.02 1.36 0 0 Z " fill="#EBEBEB" transform="translate(358,322)"/>
<path d="M0 0 C2.88575819 0.39803561 3.82189513 0.79009069 5.75 3.0625 C6.1625 3.701875 6.575 4.34125 7 5 C2.25 4.125 2.25 4.125 0 3 C0 2.01 0 1.02 0 0 Z " fill="#E9E9E9" transform="translate(129,240)"/>
<path d="M0 0 C2.4375 0.8125 2.4375 0.8125 5 2 C5.33 2.99 5.66 3.98 6 5 C0.25 4.25 0.25 4.25 -2 2 C-1.34 1.34 -0.68 0.68 0 0 Z " fill="#DFDFDF" transform="translate(197,225)"/>
<path d="M0 0 C1.32 1.32 2.64 2.64 4 4 C3.67 4.99 3.34 5.98 3 7 C1.68 6.67 0.36 6.34 -1 6 C-0.67 4.02 -0.34 2.04 0 0 Z " fill="#E1E1E1" transform="translate(396,361)"/>
<path d="M0 0 C1 2 1 2 0.0625 5.125 C-0.288125 6.07375 -0.63875 7.0225 -1 8 C-2.32 7.34 -3.64 6.68 -5 6 C-3.35 4.02 -1.7 2.04 0 0 Z " fill="#232323" transform="translate(55,312)"/>
<path d="M0 0 C-0.33 1.65 -0.66 3.3 -1 5 C-2.65 4.67 -4.3 4.34 -6 4 C-2.25 0 -2.25 0 0 0 Z " fill="#E6E6E6" transform="translate(120,320)"/>
<path d="M0 0 C1.32 0.66 2.64 1.32 4 2 C4 3.32 4 4.64 4 6 C2.35 5.67 0.7 5.34 -1 5 C-0.34 4.67 0.32 4.34 1 4 C0.67 2.68 0.34 1.36 0 0 Z " fill="#DFDFDF" transform="translate(330,305)"/>
</svg>
